<?xml version="1.0" encoding="UTF-8" standalone="no"?>
   
<svg
   version="1.1"
   id="svg2"
   width="1217.848"
   height="1217.848"
   viewBox="0 0 1217.848 1217.848"
   sodipodi:docname="logo maxi.ai"
   xmlns:inkscape="http://www.inkscape.org/namespaces/inkscape"
   xmlns:sodipodi="http://sodipodi.sourceforge.net/DTD/sodipodi-0.dtd"
   xmlns="http://www.w3.org/2000/svg"
   xmlns:svg="http://www.w3.org/2000/svg">
  <defs
     id="defs6">
    <clipPath
       clipPathUnits="userSpaceOnUse"
       id="clipPath16">
      <path
         d="M 0,913.386 H 913.386 V 0 H 0 Z"
         id="path14" />
    </clipPath>
  </defs>
  <sodipodi:namedview
     id="namedview4"
     pagecolor="#ffffff"
     bordercolor="#000000"
     borderopacity="0.25"
     inkscape:showpageshadow="2"
     inkscape:pageopacity="0.0"
     inkscape:pagecheckerboard="0"
     inkscape:deskcolor="#d1d1d1" />
  <g
     id="g8"
     inkscape:groupmode="layer"
     inkscape:label="logo maxi"
     transform="matrix(1.3333333,0,0,-1.3333333,0,1217.848)">
    <g
       id="g10">
      <g
         id="g12"
         clip-path="url(#clipPath16)">
        <g
           id="g18"
           transform="translate(288.4405,537.8052)">
          <path
             d="m 0,0 c 0,11.862 9.627,21.488 21.498,21.488 h 513.643 c 11.883,0 21.491,-9.621 21.491,-21.488 v -162.233 c 0,-11.859 -9.626,-21.489 -21.491,-21.48 H 21.498 C 9.627,-183.713 0,-174.092 0,-162.233 Z"
             style="fill:#0f283d;fill-opacity:1;fill-rule:evenodd;stroke:none"
             id="path20" />
        </g>
        <g
           id="g22"
           transform="translate(377.7354,486.2716)">
          <path
             d="M 0,0 C -5.573,0 -10.74,-1.763 -14.991,-4.768 -19.23,-1.763 -24.408,0 -29.981,0 -44.357,0 -56.066,-11.691 -56.066,-26.073 v -35.31 h 22.164 v 35.31 c 0,2.157 1.751,3.92 3.921,3.92 2.162,0 3.908,-1.763 3.908,-3.92 v -35.31 h 22.164 v 35.31 c 0,2.157 1.757,3.92 3.909,3.92 2.168,0 3.926,-1.763 3.926,-3.92 v -35.31 h 22.158 v 35.31 C 26.084,-11.691 14.388,0 0,0"
             style="fill:#e57526;fill-opacity:1;fill-rule:nonzero;stroke:none"
             id="path24" />
        </g>
        <g
           id="g26"
           transform="translate(643.1192,446.5645)">
          <path
             d="m 0,0 c -4.842,0 -8.774,3.938 -8.774,8.781 0,4.836 3.932,8.773 8.774,8.773 4.843,0 8.763,-3.937 8.763,-8.773 C 8.763,3.938 4.843,0 0,0 m 0,39.707 c -17.055,0 -30.927,-13.872 -30.927,-30.926 0,-17.062 13.872,-30.933 30.927,-30.933 17.049,0 30.921,13.871 30.921,30.933 0,17.054 -13.872,30.926 -30.921,30.926"
             style="fill:#e57526;fill-opacity:1;fill-rule:nonzero;stroke:none"
             id="path28" />
        </g>
        <g
           id="g30"
           transform="translate(598.7271,490.0294)">
          <path
             d="M 0,0 C 0,2.163 1.763,3.92 3.915,3.92 H 16.087 V 26.079 H 3.915 C -10.461,26.079 -22.158,14.376 -22.158,0 V -65.141 H 0 v 38.836 H 10.068 V -4.164 L 0,-4.164 Z"
             style="fill:#e57526;fill-opacity:1;fill-rule:nonzero;stroke:none"
             id="path32" />
        </g>
        <g
           id="g34"
           transform="translate(714.5235,485.7809)">
          <path
             d="M 0,0 H -8.988 C -23.37,0 -35.073,-11.69 -35.073,-26.079 v -34.814 h 22.164 v 34.814 c 0,2.167 1.763,3.927 3.921,3.927 H 0 Z"
             style="fill:#e57526;fill-opacity:1;fill-rule:nonzero;stroke:none"
             id="path36" />
        </g>
        <g
           id="g38"
           transform="translate(557.5826,512.2222)">
          <path
             d="m 0,0 c -6.263,0 -11.343,-5.077 -11.343,-11.346 0,-6.278 5.08,-11.349 11.343,-11.349 6.281,0 11.36,5.071 11.36,11.349 C 11.36,-5.077 6.281,0 0,0 m -11.076,-26.441 h 22.17 v -60.893 h -22.17 z"
             style="fill:#e57526;fill-opacity:1;fill-rule:nonzero;stroke:none"
             id="path40" />
        </g>
        <g
           id="g42"
           transform="translate(734.4205,512.46)">
          <path
             d="m 0,0 c -6.263,0 -11.349,-5.086 -11.349,-11.36 0,-6.263 5.086,-11.349 11.349,-11.349 6.263,0 11.354,5.086 11.354,11.349 C 11.354,-5.086 6.263,0 0,0 m -11.07,-26.45 h 22.158 v -65.141 c 0,-14.382 -11.709,-26.073 -26.085,-26.073 h -12.166 v 22.141 h 12.166 c 2.158,0 3.927,1.766 3.927,3.932 z"
             style="fill:#e57526;fill-opacity:1;fill-rule:nonzero;stroke:none"
             id="path44" />
        </g>
        <g
           id="g46"
           transform="translate(781.6309,486.2716)">
          <path
             d="m 0,0 c -17.067,0 -30.956,-13.883 -30.956,-30.958 0,-17.645 13.292,-30.954 30.956,-30.954 1.392,0 2.864,0.117 4.314,0.331 v 22.849 C 3.212,-39.295 1.281,-39.759 0,-39.759 c -6.083,0 -8.803,4.425 -8.803,8.801 0,4.85 3.931,8.805 8.803,8.805 4.848,0 8.803,-3.955 8.803,-8.805 v -30.425 h 22.153 v 30.425 C 30.956,-13.883 17.049,0 0,0"
             style="fill:#e57526;fill-opacity:1;fill-rule:nonzero;stroke:none"
             id="path48" />
        </g>
        <g
           id="g50"
           transform="translate(439.6295,486.2716)">
          <path
             d="m 0,0 c -17.073,0 -30.951,-13.883 -30.951,-30.958 0,-17.645 13.304,-30.954 30.951,-30.954 1.415,0 2.858,0.117 4.331,0.331 v 22.849 C 3.207,-39.295 1.287,-39.759 0,-39.759 c -6.061,0 -8.786,4.425 -8.786,8.801 0,4.85 3.932,8.805 8.786,8.805 4.853,0 8.797,-3.955 8.797,-8.805 v -30.425 h 22.176 v 30.425 C 30.973,-13.883 17.066,0 0,0"
             style="fill:#e57526;fill-opacity:1;fill-rule:nonzero;stroke:none"
             id="path52" />
        </g>
        <g
           id="g54"
           transform="translate(542.6734,485.7809)">
          <path
             d="M 0,0 H -27.969 L -34.122,-9.089 -40.246,0 h -27.963 l 20.123,-29.815 -20.987,-31.078 h 27.969 l 6.982,10.363 7.017,-10.363 H 0.87 l -20.993,31.078 z"
             style="fill:#e57526;fill-opacity:1;fill-rule:nonzero;stroke:none"
             id="path56" />
        </g>
        <g
           id="g58"
           transform="translate(68.313,537.8052)">
          <path
             d="m 0,0 c 0,11.862 9.621,21.488 21.485,21.488 h 162.224 c 11.877,0 21.498,-9.621 21.498,-21.488 v -162.233 c 0,-11.859 -9.621,-21.489 -21.498,-21.48 H 21.485 C 9.621,-183.713 0,-174.092 0,-162.233 Z"
             style="fill:#0f283d;fill-opacity:1;fill-rule:evenodd;stroke:none"
             id="path60" />
        </g>
        <g
           id="g62"
           transform="translate(150.2252,502.0855)">
          <path
             d="m 0,0 c 2.969,-2.963 6.918,-4.599 11.117,-4.599 8.658,0 15.721,7.057 15.727,15.724 0,8.673 -7.058,15.73 -15.727,15.73 -8.681,0 -15.733,-7.057 -15.733,-15.724 C -4.616,6.933 -2.969,2.975 0,0 m 100.319,-70.735 -7.145,-7.156 c -1.896,-1.893 -4.419,-2.942 -7.092,-2.942 -2.674,0 -5.196,1.049 -7.087,2.937 l -8.78,8.782 -0.174,0.151 c -0.765,0.56 -1.705,0.852 -2.702,0.852 -1.519,0 -3.079,-0.672 -4.257,-1.852 -1.171,-1.186 -1.867,-2.74 -1.867,-4.266 0,-1.24 0.458,-2.374 1.287,-3.189 l 8.456,-8.513 c 3.908,-3.906 3.908,-10.265 0,-14.168 l -5.48,-5.488 c -1.897,-1.888 -4.402,-2.932 -7.093,-2.932 -2.674,0 -5.196,1.044 -7.075,2.932 l -7.945,7.953 -0.11,0.099 c -1.038,0.963 -2.366,1.493 -3.763,1.493 -1.102,0 -2.755,-0.333 -4.419,-1.882 l -16.731,-16.73 c -1.925,-1.931 -4.494,-2.987 -7.225,-2.987 -2.726,0 -5.301,1.056 -7.226,2.987 l -62.769,62.764 c -3.99,3.995 -3.99,10.484 0,14.456 l 33.361,33.293 c 1.914,1.937 4.495,2.993 7.226,2.993 2.72,0 5.301,-1.056 7.226,-2.998 l 12.77,-12.718 c 2.516,-2.505 5.857,-3.903 9.412,-3.903 3.543,0 6.889,1.398 9.388,3.897 l 12.834,12.729 c 1.931,1.937 4.494,2.993 7.22,2.993 2.737,0 5.3,-1.056 7.232,-2.993 l 20.134,-20.114 c -3.602,-0.16 -6.959,-1.632 -9.517,-4.207 l -17.235,-17.221 -0.951,0.937 c -1.177,1.183 -2.766,1.856 -4.367,1.856 -1.449,0 -2.812,-0.546 -3.798,-1.537 L 18.302,-58.229 c -0.035,-0.029 -2.79,-2.958 -7.185,-2.958 -4.089,0 -6.49,2.309 -6.582,2.399 l -14.672,14.68 c -0.876,0.858 -2.065,1.337 -3.358,1.337 -1.611,0 -3.253,-0.72 -4.5,-1.975 -2.343,-2.331 -2.615,-5.848 -0.638,-7.846 L 1.705,-72.927 c 2.54,-2.502 5.857,-3.894 9.412,-3.894 4.952,0 8.205,2.729 9.4,3.894 l 41.15,41.191 c 1.851,1.853 4.315,2.874 6.936,2.874 2.204,0 4.28,-0.72 6.014,-2.076 l 25.702,-25.626 c 3.902,-3.907 3.902,-10.259 0,-14.171"
             style="fill:#e57526;fill-opacity:1;fill-rule:nonzero;stroke:none"
             id="path64" />
        </g>
      </g>
    </g>
  </g>
</svg>
