<svg version="1.1" id="Camada_1" xmlns="http://www.w3.org/2000/svg" x="0" y="0" viewBox="0 0 443.42 627.17" style="enable-background:new 0 0 443.42 627.17" xml:space="preserve"><style></style><switch><g><path d="M0 610.05c0 9.45 7.67 17.12 17.12 17.12h409.17c9.46 0 17.13-7.67 17.13-17.12V480.82c0-9.45-7.67-17.12-17.13-17.12H17.12C7.67 463.7 0 471.36 0 480.82v129.23zM0 17.12C0 7.67 7.67 0 17.12 0h409.17c9.46 0 17.13 7.67 17.13 17.12v409.92c0 9.45-7.68 17.12-17.13 17.12H17.12C7.67 444.15 0 436.48 0 427.04V17.12z" style="fill:#252222"/><path d="M171.81 110.16c0-17.19 13.98-31.17 31.16-31.17s31.16 13.99 31.16 31.18c-.01 17.18-13.99 31.16-31.16 31.17-8.32-.01-16.15-3.25-22.03-9.14-5.88-5.89-9.13-13.72-9.13-22.04M379.8 244.33l-50.95-50.79c-3.44-2.69-7.55-4.12-11.93-4.12-5.19 0-10.06 2.03-13.73 5.69l-81.57 81.64c-2.33 2.32-8.81 7.71-18.64 7.71-7.02 0-13.65-2.75-18.63-7.71l-40.31-40.29c-3.94-3.96-3.39-10.95 1.24-15.58 2.47-2.47 5.72-3.89 8.91-3.89 2.58 0 4.95.94 6.65 2.65l29.09 29.09c.18.18 4.97 4.74 13.05 4.74 8.72 0 14.19-5.79 14.25-5.85l27.25-27.35c1.97-1.97 4.64-3.06 7.53-3.06 3.18 0 6.33 1.34 8.66 3.67l1.89 1.89 34.15-34.15c5.09-5.09 11.74-8.02 18.87-8.35l-39.89-39.86a20.192 20.192 0 0 0-14.34-5.93c-5.41 0-10.49 2.11-14.32 5.93l-25.43 25.24c-4.97 4.96-11.58 7.7-18.62 7.7-7.04 0-13.65-2.75-18.63-7.72l-25.33-25.22a20.186 20.186 0 0 0-14.33-5.93c-5.42 0-10.5 2.11-14.33 5.93L64.24 206.4c-7.91 7.89-7.91 20.74 0 28.65l124.4 124.4c3.83 3.83 8.92 5.93 14.33 5.93 5.42 0 10.5-2.1 14.33-5.93l33.18-33.14c3.27-3.08 6.53-3.74 8.73-3.74 2.79 0 5.43 1.05 7.46 2.96l.21.2 15.76 15.75c3.75 3.75 8.73 5.81 14.03 5.81 5.32 0 10.29-2.06 14.04-5.81l10.87-10.86c7.73-7.74 7.73-20.34 0-28.08l-16.77-16.87c-1.64-1.62-2.52-3.87-2.52-6.34 0-3.02 1.34-6.09 3.69-8.44 2.33-2.33 5.4-3.68 8.44-3.68 1.98 0 3.82.59 5.34 1.68l.37.31 17.4 17.4c3.75 3.75 8.73 5.82 14.04 5.82 5.31 0 10.3-2.07 14.05-5.82l14.18-14.18c7.73-7.75 7.73-20.34 0-28.09M202.52 522.26h-22.29l-4.88 7.25-4.89-7.25h-22.28L164.21 546l-16.72 24.77h22.29l5.57-8.26 5.57 8.26h22.28L186.49 546l16.03-23.74zm-82.09-.4c-13.59 0-24.66 11.07-24.66 24.67 0 14.06 10.6 24.66 24.66 24.66 1.12 0 2.29-.09 3.45-.26v-18.21c-.88.45-2.42.82-3.45.82-4.84 0-7-3.52-7-7.01 0-3.87 3.14-7.01 7-7.01 3.87 0 7.01 3.14 7.01 7.01v24.24h17.65v-24.24c0-13.6-11.06-24.67-24.66-24.67m272.44 0c-13.6 0-24.66 11.07-24.66 24.67 0 14.06 10.6 24.66 24.66 24.66 1.12 0 2.28-.09 3.45-.26v-18.21c-.88.45-2.42.82-3.45.82-4.84 0-7.01-3.52-7.01-7.01 0-3.87 3.15-7.01 7.01-7.01s7.01 3.14 7.01 7.01v24.24h17.64v-24.24c0-13.6-11.05-24.67-24.65-24.67m-28.56-11.81c0 4.99-4.04 9.05-9.04 9.05s-9.05-4.05-9.05-9.05c0-4.99 4.05-9.05 9.05-9.05s9.04 4.06 9.04 9.05m-17.87 63.92c0 1.72-1.4 3.11-3.11 3.11h-9.69v17.65h9.69c11.45 0 20.77-9.32 20.77-20.77v-51.9h-17.65v51.91zm-123-63.74c0 4.99-4.04 9.05-9.04 9.05-4.99 0-9.05-4.05-9.05-9.05 0-4.99 4.05-9.04 9.05-9.04 5 .01 9.04 4.05 9.04 9.04m-17.87 60.54h17.65v-48.51h-17.65v48.51zm133.85-48.52h-7.17c-11.45 0-20.78 9.32-20.78 20.78v27.74h17.65v-27.74c0-1.72 1.4-3.11 3.12-3.11h7.17v-17.67zm-92.25-3.38c0-1.71 1.4-3.11 3.12-3.11h9.68V498.1h-9.68c-11.46 0-20.78 9.32-20.78 20.77v51.9h17.65v-30.94h8.02v-17.64h-8.02v-3.32zm42.35 27.64a6.99 6.99 0 0 0-6.99-6.99c-3.85 0-6.99 3.13-6.99 6.99 0 3.85 3.14 6.98 6.99 6.98 3.86 0 6.99-3.13 6.99-6.98m17.65 0c0 13.58-11.06 24.64-24.65 24.64-13.58 0-24.63-11.06-24.63-24.64s11.05-24.65 24.63-24.65c13.6 0 24.65 11.07 24.65 24.65M91.9 542.64v28.13H74.25v-28.13c0-1.72-1.4-3.12-3.11-3.12-1.72 0-3.13 1.4-3.13 3.12v28.13H50.36v-28.13c0-1.72-1.4-3.12-3.11-3.12-1.73 0-3.13 1.4-3.13 3.12v28.13H26.47v-28.13c0-11.45 9.32-20.78 20.78-20.78 4.44 0 8.56 1.42 11.94 3.8 3.38-2.38 7.5-3.8 11.95-3.8 11.44 0 20.76 9.33 20.76 20.78" style="fill:#fff"/></g></switch></svg>