<?xml version="1.0" encoding="UTF-8"?>
<!DOCTYPE svg PUBLIC "-//W3C//DTD SVG 1.1//EN" "http://www.w3.org/Graphics/SVG/1.1/DTD/svg11.dtd">
<svg xmlns="http://www.w3.org/2000/svg" version="1.1" width="508px" height="733px" style="shape-rendering:geometricPrecision; text-rendering:geometricPrecision; image-rendering:optimizeQuality; fill-rule:evenodd; clip-rule:evenodd" xmlns:xlink="http://www.w3.org/1999/xlink">
<g><path style="opacity:1" fill="#2d5871" d="M 315.5,69.5 C 340.33,70.3322 365.33,70.8322 390.5,71C 393.467,73.1005 395.3,75.9338 396,79.5C 401.298,104.74 406.798,129.907 412.5,155C 412.684,156.376 413.351,157.209 414.5,157.5C 414.5,157.833 414.5,158.167 414.5,158.5C 413.876,158.917 413.543,159.584 413.5,160.5C 415.372,169.861 417.372,179.195 419.5,188.5C 419.747,189.713 420.414,190.38 421.5,190.5C 421.5,190.833 421.5,191.167 421.5,191.5C 420.313,194.343 420.313,197.343 421.5,200.5C 419.181,208.326 414.181,210.826 406.5,208C 380.053,182.221 353.553,156.388 327,130.5C 326.601,130.728 326.435,131.062 326.5,131.5C 325.82,128.657 323.987,126.99 321,126.5C 313.765,128.874 306.932,131.874 300.5,135.5C 298.738,135.357 297.071,135.691 295.5,136.5C 292.847,138.724 289.847,140.391 286.5,141.5C 285.702,141.957 285.369,142.624 285.5,143.5C 285.167,143.5 284.833,143.5 284.5,143.5C 284.44,142.957 284.107,142.624 283.5,142.5C 271.805,147.6 259.972,152.267 248,156.5C 233.129,151.484 218.629,145.484 204.5,138.5C 203.571,139.689 203.238,141.022 203.5,142.5C 203.477,150.183 203.143,157.85 202.5,165.5C 202.817,169.702 202.483,173.702 201.5,177.5C 201.902,164.14 201.902,150.806 201.5,137.5C 196.645,135.823 192.145,133.49 188,130.5C 184.011,133.322 180.511,136.656 177.5,140.5C 161.371,154.793 145.371,169.293 129.5,184C 119.191,194.642 108.524,204.975 97.5,215C 88.451,218.817 83.451,215.984 82.5,206.5C 86.8469,183.111 91.5136,159.778 96.5,136.5C 96.4573,135.584 96.1239,134.917 95.5,134.5C 95.5,133.833 95.5,133.167 95.5,132.5C 96.4972,132.53 97.1639,132.03 97.5,131C 100.327,122.704 101.994,114.204 102.5,105.5C 105.984,96.6024 108.15,87.269 109,77.5C 110.389,74.9744 111.889,72.6411 113.5,70.5C 139.167,70.5 164.833,70.5 190.5,70.5C 190.5,69.1667 190.5,67.8333 190.5,66.5C 200.833,58.1667 210.167,48.8333 218.5,38.5C 218.5,37.1667 219.167,36.5 220.5,36.5C 229.112,29.5561 237.112,21.8894 244.5,13.5C 250.251,9.42421 255.918,9.59088 261.5,14C 279.367,32.6996 297.367,51.1996 315.5,69.5 Z M 252.5,33.5 C 264.298,44.798 275.965,56.298 287.5,68C 264.5,68.6667 241.5,68.6667 218.5,68C 230.035,56.6318 241.369,45.1318 252.5,33.5 Z M 166.5,98.5 C 165.833,98.1667 165.167,97.8333 164.5,97.5C 161.173,95.1699 157.507,93.3366 153.5,92C 161.493,91.5003 169.493,91.3336 177.5,91.5C 177.823,95.226 177.489,98.8927 176.5,102.5C 173.222,100.964 169.889,99.6311 166.5,98.5 Z M 238.5,131.5 C 235.912,129.375 232.912,128.042 229.5,127.5C 222.598,123.465 215.431,119.798 208,116.5C 207.378,108.148 207.545,99.8144 208.5,91.5C 237.833,91.5 267.167,91.5 296.5,91.5C 296.619,98.9641 296.619,106.297 296.5,113.5C 280.988,120.093 265.654,126.926 250.5,134C 248.833,134.667 247.167,134.667 245.5,134C 243.35,132.589 241.016,131.755 238.5,131.5 Z M 341.5,94.5 C 341.167,94.5 340.833,94.5 340.5,94.5C 336.183,96.4697 331.85,98.4697 327.5,100.5C 326.516,97.5719 326.183,94.5719 326.5,91.5C 332.842,91.3338 339.175,91.5005 345.5,92C 343.934,92.6082 342.6,93.4415 341.5,94.5 Z M 130.5,105.5 C 131.167,105.833 131.833,106.167 132.5,106.5C 142.953,111.892 153.62,117.059 164.5,122C 162.402,124.854 160.069,127.521 157.5,130C 147.291,138.046 137.958,146.879 129.5,156.5C 123.558,161.267 117.725,166.267 112,171.5C 116.015,148.758 120.681,126.092 126,103.5C 127.33,104.582 128.83,105.249 130.5,105.5 Z M 377.5,102.5 C 378.931,102.881 379.764,103.881 380,105.5C 384.106,124.813 387.773,144.146 391,163.5C 375.805,147.971 360.305,132.804 344.5,118C 356.135,113.845 367.135,108.678 377.5,102.5 Z"/></g>
<g><path style="opacity:0.133" fill="#abb8c0" d="M 387.5,68.5 C 363.672,69.4976 339.672,69.8309 315.5,69.5C 297.367,51.1996 279.367,32.6996 261.5,14C 255.918,9.59088 250.251,9.42421 244.5,13.5C 237.112,21.8894 229.112,29.5561 220.5,36.5C 228.241,27.2544 236.574,18.4211 245.5,10C 252.107,7.40894 258.107,8.40894 263.5,13C 280.369,31.7003 297.702,49.867 315.5,67.5C 339.491,68.4997 363.491,68.8331 387.5,68.5 Z"/></g>
<g><path style="opacity:0.125" fill="#a2b2b8" d="M 218.5,38.5 C 210.167,48.8333 200.833,58.1667 190.5,66.5C 198.575,56.9209 207.242,47.7542 216.5,39C 217.094,38.5357 217.761,38.369 218.5,38.5 Z"/></g>
<g><path style="opacity:0.255" fill="#adbbc1" d="M 251.5,31.5 C 252.239,31.369 252.906,31.5357 253.5,32C 266.014,44.6808 278.681,57.1808 291.5,69.5C 265.833,70.8333 240.167,70.8333 214.5,69.5C 226.855,56.8126 239.188,44.1459 251.5,31.5 Z M 252.5,33.5 C 241.369,45.1318 230.035,56.6318 218.5,68C 241.5,68.6667 264.5,68.6667 287.5,68C 275.965,56.298 264.298,44.798 252.5,33.5 Z"/></g>
<g><path style="opacity:0.51" fill="#b0c0c8" d="M 190.5,66.5 C 190.5,67.8333 190.5,69.1667 190.5,70.5C 164.833,70.5 139.167,70.5 113.5,70.5C 113.918,69.7784 114.584,69.2784 115.5,69C 140.726,69.1438 165.726,68.3104 190.5,66.5 Z"/></g>
<g><path style="opacity:0.408" fill="#9aabb4" d="M 387.5,68.5 C 393.517,69.685 397.017,73.3517 398,79.5C 403.187,105.602 408.687,131.602 414.5,157.5C 413.351,157.209 412.684,156.376 412.5,155C 406.798,129.907 401.298,104.74 396,79.5C 395.3,75.9338 393.467,73.1005 390.5,71C 365.33,70.8322 340.33,70.3322 315.5,69.5C 339.672,69.8309 363.672,69.4976 387.5,68.5 Z"/></g>
<g><path style="opacity:0.431" fill="#9cadb7" d="M 113.5,70.5 C 111.889,72.6411 110.389,74.9744 109,77.5C 108.15,87.269 105.984,96.6024 102.5,105.5C 103.996,96.177 105.496,86.8437 107,77.5C 107.829,73.7886 109.996,71.4553 113.5,70.5 Z"/></g>
<g><path style="opacity:0.045" fill="#a5afb4" d="M 179.5,96.5 C 179.5,99.5 179.5,102.5 179.5,105.5C 175.521,103.846 171.521,102.179 167.5,100.5C 166.702,100.043 166.369,99.3764 166.5,98.5C 169.889,99.6311 173.222,100.964 176.5,102.5C 177.489,98.8927 177.823,95.226 177.5,91.5C 169.493,91.3336 161.493,91.5003 153.5,92C 157.507,93.3366 161.173,95.1699 164.5,97.5C 158.218,95.6836 152.218,93.1836 146.5,90C 157.495,89.5002 168.495,89.3335 179.5,89.5C 179.5,91.8333 179.5,94.1667 179.5,96.5 Z"/></g>
<g><path style="opacity:0.999" fill="#103140" d="M 205.5,92.5 C 205.5,97.8333 205.5,103.167 205.5,108.5C 204.834,111.028 204.168,113.694 203.5,116.5C 195.39,112.809 187.39,109.142 179.5,105.5C 179.5,102.5 179.5,99.5 179.5,96.5C 180.468,94.3926 180.802,92.0593 180.5,89.5C 188.833,89.5 197.167,89.5 205.5,89.5C 205.5,90.5 205.5,91.5 205.5,92.5 Z"/></g>
<g><path style="opacity:0.995" fill="#103141" d="M 298.5,89.5 C 307.251,89.1968 315.918,89.5301 324.5,90.5C 324.5,94.5 324.5,98.5 324.5,102.5C 323.251,104.136 321.584,105.303 319.5,106C 312.926,108.789 306.259,111.289 299.5,113.5C 299.167,105.5 298.833,97.5 298.5,89.5 Z"/></g>
<g><path style="opacity:0.046" fill="#9ba7ac" d="M 341.5,94.5 C 342.6,93.4415 343.934,92.6082 345.5,92C 339.175,91.5005 332.842,91.3338 326.5,91.5C 326.183,94.5719 326.516,97.5719 327.5,100.5C 331.85,98.4697 336.183,96.4697 340.5,94.5C 339.106,96.4809 337.273,98.1476 335,99.5C 331.602,100.955 328.102,101.955 324.5,102.5C 324.5,98.5 324.5,94.5 324.5,90.5C 334.325,89.3417 344.325,89.1751 354.5,90C 350.65,92.0905 346.65,93.9239 342.5,95.5C 341.893,95.3764 341.56,95.0431 341.5,94.5 Z M 341.5,94.5 C 341.167,94.5 340.833,94.5 340.5,94.5C 336.183,96.4697 331.85,98.4697 327.5,100.5C 326.516,97.5719 326.183,94.5719 326.5,91.5C 332.842,91.3338 339.175,91.5005 345.5,92C 343.934,92.6082 342.6,93.4415 341.5,94.5 Z"/></g>
<g><path style="opacity:0.063" fill="#a7b4ba" d="M 132.5,106.5 C 144.487,110.78 156.153,115.947 167.5,122C 157.143,131.735 146.81,141.735 136.5,152C 134.138,153.511 131.805,155.011 129.5,156.5C 137.958,146.879 147.291,138.046 157.5,130C 160.069,127.521 162.402,124.854 164.5,122C 153.62,117.059 142.953,111.892 132.5,106.5 Z"/></g>
<g><path style="opacity:0.42" fill="#9ba7ae" d="M 298.5,89.5 C 298.833,97.5 299.167,105.5 299.5,113.5C 283.257,120.951 266.924,128.451 250.5,136C 246.607,136.4 242.94,135.567 239.5,133.5C 238.702,133.043 238.369,132.376 238.5,131.5C 241.016,131.755 243.35,132.589 245.5,134C 247.167,134.667 248.833,134.667 250.5,134C 265.654,126.926 280.988,120.093 296.5,113.5C 296.619,106.297 296.619,98.9641 296.5,91.5C 267.167,91.5 237.833,91.5 208.5,91.5C 207.545,99.8144 207.378,108.148 208,116.5C 215.431,119.798 222.598,123.465 229.5,127.5C 221.723,124.845 214.057,121.679 206.5,118C 205.549,114.943 205.216,111.777 205.5,108.5C 205.5,103.167 205.5,97.8333 205.5,92.5C 206.404,91.791 206.737,90.791 206.5,89.5C 237.167,89.5 267.833,89.5 298.5,89.5 Z"/></g>
<g><path style="opacity:0.557" fill="#9eb0bb" d="M 102.5,105.5 C 101.994,114.204 100.327,122.704 97.5,131C 97.1639,132.03 96.4972,132.53 95.5,132.5C 97.973,123.442 100.306,114.442 102.5,105.5 Z"/></g>
<g><path style="opacity:0.998" fill="#103140" d="M 326.5,131.5 C 328.637,182.919 331.304,234.252 334.5,285.5C 334.815,301.005 335.482,316.339 336.5,331.5C 336.334,336.844 336.501,342.177 337,347.5C 338.77,358.14 340.27,368.807 341.5,379.5C 344.266,390.819 346.266,402.153 347.5,413.5C 347.94,415.844 348.94,417.844 350.5,419.5C 350.5,419.833 350.5,420.167 350.5,420.5C 349.371,422.628 349.204,424.961 350,427.5C 350.236,429.119 351.069,430.119 352.5,430.5C 352.5,430.833 352.5,431.167 352.5,431.5C 351.844,432.622 351.511,433.955 351.5,435.5C 360.566,493.397 369.9,551.23 379.5,609C 379.836,610.03 380.503,610.53 381.5,610.5C 381.5,610.833 381.5,611.167 381.5,611.5C 380.861,612.097 380.528,612.93 380.5,614C 380.684,615.376 381.351,616.209 382.5,616.5C 382.5,616.833 382.5,617.167 382.5,617.5C 381.366,619.966 381.199,622.633 382,625.5C 384.727,643.529 387.56,661.529 390.5,679.5C 404.327,680.331 418.327,680.831 432.5,681C 435.576,682.243 438.243,684.077 440.5,686.5C 443.323,697.193 439.323,703.526 428.5,705.5C 427.513,710.305 427.179,715.305 427.5,720.5C 417.5,720.5 407.5,720.5 397.5,720.5C 397.5,715.5 397.5,710.5 397.5,705.5C 389.5,705.5 381.5,705.5 373.5,705.5C 371.167,702.997 369.001,700.331 367,697.5C 365.614,689.853 364.447,682.186 363.5,674.5C 289.167,674.5 214.833,674.5 140.5,674.5C 139.811,683.278 138.477,691.944 136.5,700.5C 134.692,701.907 132.692,703.074 130.5,704C 124.294,704.382 118.294,705.215 112.5,706.5C 112.5,711.167 112.5,715.833 112.5,720.5C 101.986,720.172 91.6532,720.506 81.5,721.5C 80.8333,721.5 80.5,721.167 80.5,720.5C 81.4454,715.595 81.7787,710.595 81.5,705.5C 77.8333,705.5 74.1667,705.5 70.5,705.5C 68.4659,703.061 66.2993,700.728 64,698.5C 63.3333,694.833 63.3333,691.167 64,687.5C 64.9959,685.34 66.4959,683.673 68.5,682.5C 69.4734,682.013 70.4734,681.513 71.5,681C 85.6727,680.831 99.6727,680.331 113.5,679.5C 128.549,590.863 142.883,501.863 156.5,412.5C 156.263,411.209 156.596,410.209 157.5,409.5C 157.807,399.01 159.474,388.676 162.5,378.5C 165.905,363.391 167.572,348.058 167.5,332.5C 168.614,318.677 169.281,304.677 169.5,290.5C 172.629,240.582 175.296,190.582 177.5,140.5C 180.511,136.656 184.011,133.322 188,130.5C 192.145,133.49 196.645,135.823 201.5,137.5C 201.902,150.806 201.902,164.14 201.5,177.5C 201.5,179.5 201.5,181.5 201.5,183.5C 201.5,184.833 201.5,186.167 201.5,187.5C 200.513,192.305 200.179,197.305 200.5,202.5C 200.179,207.695 200.513,212.695 201.5,217.5C 201.5,218.167 201.5,218.833 201.5,219.5C 200.883,219.389 200.383,219.056 200,218.5C 199.181,224.681 199.347,230.681 200.5,236.5C 200.5,237.167 200.5,237.833 200.5,238.5C 198.796,246.263 197.796,254.263 197.5,262.5C 196.267,271.643 195.601,280.976 195.5,290.5C 195.5,291.167 195.5,291.833 195.5,292.5C 194.504,305.656 194.171,318.99 194.5,332.5C 189.196,369.01 183.863,405.677 178.5,442.5C 176.739,451.301 175.406,460.301 174.5,469.5C 170.865,486.552 168.198,503.886 166.5,521.5C 166.5,521.833 166.5,522.167 166.5,522.5C 164.699,527.623 163.199,532.956 162,538.5C 157.505,566.794 153.338,595.127 149.5,623.5C 147.384,631.247 146.051,639.247 145.5,647.5C 216.665,648.499 287.998,648.833 359.5,648.5C 359.737,647.209 359.404,646.209 358.5,645.5C 358.768,643.901 358.434,642.568 357.5,641.5C 357.245,633.933 356.245,626.6 354.5,619.5C 354.5,618.833 354.5,618.167 354.5,617.5C 351.119,590.801 346.452,564.468 340.5,538.5C 340.167,537.833 339.833,537.167 339.5,536.5C 340.124,536.083 340.457,535.416 340.5,534.5C 340.036,531.651 339.369,528.984 338.5,526.5C 336.885,508.556 334.218,490.89 330.5,473.5C 329.579,461.926 327.912,450.593 325.5,439.5C 322.294,413.931 318.127,388.598 313,363.5C 311.891,354.52 311.057,345.52 310.5,336.5C 310.823,329.978 310.49,323.645 309.5,317.5C 309.411,306.645 308.744,295.979 307.5,285.5C 307.825,277.648 307.492,269.982 306.5,262.5C 305.991,237.302 304.657,212.302 302.5,187.5C 302.826,178.651 302.493,169.984 301.5,161.5C 301.344,152.825 301.011,144.158 300.5,135.5C 306.932,131.874 313.765,128.874 321,126.5C 323.987,126.99 325.82,128.657 326.5,131.5 Z M 283.5,186.5 C 278.206,190.127 273.539,194.46 269.5,199.5C 263.89,203.772 258.557,208.438 253.5,213.5C 253.167,211.167 251.833,209.833 249.5,209.5C 242.854,200.854 235.188,193.188 226.5,186.5C 225.167,185.5 223.833,184.5 222.5,183.5C 217.587,176.916 211.92,170.916 205.5,165.5C 205.334,157.16 205.5,148.827 206,140.5C 219.444,147.891 233.444,153.891 248,158.5C 260.739,154.708 272.906,149.708 284.5,143.5C 284.833,143.5 285.167,143.5 285.5,143.5C 289.479,141.846 293.479,140.179 297.5,138.5C 299.243,148.774 299.743,159.108 299,169.5C 293.236,174.758 288.069,180.424 283.5,186.5 Z M 227.5,209.5 C 232.297,214.798 237.297,219.965 242.5,225C 240.627,226.704 238.96,228.537 237.5,230.5C 230.833,235.167 225.167,240.833 220.5,247.5C 219.5,247.833 218.833,248.5 218.5,249.5C 212.872,254.12 207.205,258.787 201.5,263.5C 200.502,255.193 200.169,246.86 200.5,238.5C 200.5,237.833 200.5,237.167 200.5,236.5C 201.489,231.025 201.822,225.358 201.5,219.5C 201.5,218.833 201.5,218.167 201.5,217.5C 202.167,217.5 202.5,217.167 202.5,216.5C 202.5,209.833 202.5,203.167 202.5,196.5C 203.319,193.695 203.819,190.695 204,187.5C 211.401,195.405 219.235,202.738 227.5,209.5 Z M 290.5,248.5 C 287.806,246.473 285.473,244.139 283.5,241.5C 278.536,236.035 273.37,230.702 268,225.5C 267.53,224.423 267.697,223.423 268.5,222.5C 279.134,213.533 289.134,203.866 298.5,193.5C 299.458,193.047 300.292,192.381 301,191.5C 302.301,214.508 303.301,237.508 304,260.5C 299.926,255.921 295.426,251.921 290.5,248.5 Z M 255.5,236.5 C 261.889,243.891 268.889,250.557 276.5,256.5C 284.779,265.446 293.446,274.113 302.5,282.5C 304.92,284.92 306.087,287.92 306,291.5C 306.333,298.167 306.667,304.833 307,311.5C 307.638,312.609 308.138,313.775 308.5,315C 307.586,316.406 306.92,317.906 306.5,319.5C 305.167,319.5 304.5,320.167 304.5,321.5C 301.397,323.423 298.397,325.59 295.5,328C 283.176,340.498 270.843,352.998 258.5,365.5C 257.236,367.27 255.736,368.937 254,370.5C 235.354,352.688 216.854,334.688 198.5,316.5C 197.833,316.167 197.167,315.833 196.5,315.5C 196.39,307.475 196.724,299.475 197.5,291.5C 200.167,289.5 202.5,287.167 204.5,284.5C 213.8,276.867 222.467,268.534 230.5,259.5C 234.833,255.833 238.833,251.833 242.5,247.5C 247.107,244.232 251.441,240.565 255.5,236.5 Z M 312.5,427.5 C 304.194,417.194 294.86,407.86 284.5,399.5C 282.167,397.5 279.833,395.5 277.5,393.5C 273.67,389.501 270.003,385.335 266.5,381C 274.036,373.632 281.369,366.132 288.5,358.5C 295.206,352.058 302.039,345.724 309,339.5C 312.848,370.586 317.348,401.586 322.5,432.5C 322.333,433.5 322.167,434.5 322,435.5C 319.234,432.223 316.067,429.557 312.5,427.5 Z M 195.5,336.5 C 210.661,351.494 225.994,366.327 241.5,381C 221.638,401.195 201.472,421.029 181,440.5C 184.997,412.177 189.331,383.844 194,355.5C 194.207,349.086 194.707,342.753 195.5,336.5 Z M 279.5,416.5 C 288.553,426.555 298.22,435.888 308.5,444.5C 313.145,449.48 317.812,454.48 322.5,459.5C 315.613,467.556 307.946,474.722 299.5,481C 297.612,483.707 295.612,486.207 293.5,488.5C 291.833,489.5 290.5,490.833 289.5,492.5C 282.685,498.476 275.685,504.309 268.5,510C 263.949,514.048 259.949,518.548 256.5,523.5C 255.833,523.5 255.5,523.833 255.5,524.5C 240.023,509.933 224.356,495.6 208.5,481.5C 203.131,475.13 197.131,469.463 190.5,464.5C 189.19,462.852 187.857,461.186 186.5,459.5C 190.522,455.146 194.522,450.813 198.5,446.5C 201.833,443.833 204.833,440.833 207.5,437.5C 220.114,426.553 232.114,414.887 243.5,402.5C 245.833,400.833 247.833,398.833 249.5,396.5C 250.627,395.878 251.627,395.045 252.5,394C 253.5,393.333 254.5,393.333 255.5,394C 263.088,402.093 271.088,409.593 279.5,416.5 Z M 187.5,482.5 C 192.89,488.892 198.89,494.559 205.5,499.5C 210.89,505.892 216.89,511.559 223.5,516.5C 229.223,523.225 235.556,529.225 242.5,534.5C 228.163,549.837 213.163,564.504 197.5,578.5C 196.833,578.5 196.5,578.833 196.5,579.5C 189.705,585.125 183.038,590.958 176.5,597C 172.561,600.429 169.228,604.263 166.5,608.5C 164.5,610.167 162.5,611.833 160.5,613.5C 157.421,615.467 154.588,617.8 152,620.5C 156.828,587.883 161.662,555.216 166.5,522.5C 166.5,522.167 166.5,521.833 166.5,521.5C 170.211,505.438 173.378,489.105 176,472.5C 179.429,476.439 183.263,479.772 187.5,482.5 Z M 338.5,526.5 C 338.46,529.881 338.793,533.214 339.5,536.5C 339.833,537.167 340.167,537.833 340.5,538.5C 344.058,564.184 347.725,589.851 351.5,615.5C 323.396,589.232 295.396,562.732 267.5,536C 270.669,531.999 274.003,528.166 277.5,524.5C 283.576,519.931 289.242,514.764 294.5,509C 295.833,508.333 297.167,507.667 298.5,507C 302.615,502.603 306.615,498.103 310.5,493.5C 312.167,492.167 313.833,490.833 315.5,489.5C 319.831,485.337 324.331,481.337 329,477.5C 332.046,493.07 334.713,508.736 337,524.5C 337.278,525.416 337.778,526.082 338.5,526.5 Z M 260.5,551.5 C 266.223,558.225 272.556,564.225 279.5,569.5C 284.557,575.559 290.224,580.893 296.5,585.5C 302.223,592.225 308.556,598.225 315.5,603.5C 320.63,609.131 325.964,614.631 331.5,620C 338.058,626.065 344.725,631.898 351.5,637.5C 352.793,639.296 354.293,640.963 356,642.5C 356.49,643.793 356.657,645.127 356.5,646.5C 287.331,646.833 218.331,646.499 149.5,645.5C 150.239,645.631 150.906,645.464 151.5,645C 161.728,634.604 172.062,624.437 182.5,614.5C 184.167,613.5 185.5,612.167 186.5,610.5C 192.442,606.227 197.776,601.227 202.5,595.5C 203.167,595.167 203.833,594.833 204.5,594.5C 215.86,583.473 227.193,572.473 238.5,561.5C 244.11,557.228 249.443,552.562 254.5,547.5C 256.264,549.278 258.264,550.611 260.5,551.5 Z"/></g>
<g><path style="opacity:0.016" fill="#a6b2b8" d="M 377.5,100.5 C 378.822,100.33 379.989,100.663 381,101.5C 386.373,123.697 390.706,146.031 394,168.5C 376.321,151.988 359.154,134.988 342.5,117.5C 349.628,113.847 356.961,110.68 364.5,108C 368.636,105.024 372.97,102.524 377.5,100.5 Z M 377.5,102.5 C 367.135,108.678 356.135,113.845 344.5,118C 360.305,132.804 375.805,147.971 391,163.5C 387.773,144.146 384.106,124.813 380,105.5C 379.764,103.881 378.931,102.881 377.5,102.5 Z"/></g>
<g><path style="opacity:0.067" fill="#98a5ac" d="M 284.5,143.5 C 272.906,149.708 260.739,154.708 248,158.5C 233.444,153.891 219.444,147.891 206,140.5C 205.5,148.827 205.334,157.16 205.5,165.5C 204.833,157.833 204.167,150.167 203.5,142.5C 203.238,141.022 203.571,139.689 204.5,138.5C 218.629,145.484 233.129,151.484 248,156.5C 259.972,152.267 271.805,147.6 283.5,142.5C 284.107,142.624 284.44,142.957 284.5,143.5 Z"/></g>
<g><path style="opacity:0.012" fill="#a7b1b7" d="M 130.5,105.5 C 128.83,105.249 127.33,104.582 126,103.5C 120.681,126.092 116.015,148.758 112,171.5C 117.725,166.267 123.558,161.267 129.5,156.5C 128.766,157.708 128.433,159.041 128.5,160.5C 127.448,160.351 126.448,160.517 125.5,161C 120.64,167.194 115.14,172.694 109,177.5C 108.833,176.667 108.667,175.833 108.5,175C 113.817,150.581 118.817,126.081 123.5,101.5C 124.552,101.351 125.552,101.517 126.5,102C 128.319,102.74 129.652,103.907 130.5,105.5 Z"/></g>
<g><path style="opacity:0.11" fill="#bbd6d8" d="M 203.5,142.5 C 204.167,150.167 204.833,157.833 205.5,165.5C 211.92,170.916 217.587,176.916 222.5,183.5C 215.847,177.579 209.18,171.579 202.5,165.5C 203.143,157.85 203.477,150.183 203.5,142.5 Z"/></g>
<g><path style="opacity:0.031" fill="#acb7bc" d="M 95.5,134.5 C 96.1239,134.917 96.4573,135.584 96.5,136.5C 91.5136,159.778 86.8469,183.111 82.5,206.5C 83.451,215.984 88.451,218.817 97.5,215C 108.524,204.975 119.191,194.642 129.5,184C 145.371,169.293 161.371,154.793 177.5,140.5C 175.296,190.582 172.629,240.582 169.5,290.5C 142.118,313.195 115.118,336.362 88.5,360C 87.552,360.483 86.552,360.649 85.5,360.5C 113.027,336.825 140.527,312.825 168,288.5C 170.403,240.448 172.736,192.448 175,144.5C 149.833,168.333 124.667,192.167 99.5,216C 93.8769,219.442 88.3769,219.275 83,215.5C 81.1285,212.795 80.2952,209.795 80.5,206.5C 84.7549,182.22 89.7549,158.22 95.5,134.5 Z"/></g>
<g><path style="opacity:0.99" fill="#2ab1bf" d="M 301.5,161.5 C 302.493,169.984 302.826,178.651 302.5,187.5C 300.748,189.246 299.415,191.246 298.5,193.5C 290.206,200.789 281.873,208.122 273.5,215.5C 271.395,217.592 269.728,219.925 268.5,222.5C 265.162,223.193 264.662,224.86 267,227.5C 272.284,232.538 277.784,237.205 283.5,241.5C 285.473,244.139 287.806,246.473 290.5,248.5C 294.742,254.578 299.909,259.912 306,264.5C 306.464,263.906 306.631,263.239 306.5,262.5C 307.492,269.982 307.825,277.648 307.5,285.5C 305.871,284.375 304.371,283.041 303,281.5C 302.601,281.728 302.435,282.062 302.5,282.5C 293.446,274.113 284.779,265.446 276.5,256.5C 270.085,249.082 263.085,242.415 255.5,236.5C 255.44,235.957 255.107,235.624 254.5,235.5C 249.457,238.543 245.457,242.543 242.5,247.5C 238.833,251.833 234.833,255.833 230.5,259.5C 220.513,266.487 211.847,274.821 204.5,284.5C 202.5,287.167 200.167,289.5 197.5,291.5C 197.158,290.662 196.492,290.328 195.5,290.5C 195.601,280.976 196.267,271.643 197.5,262.5C 197.336,265.187 197.503,267.854 198,270.5C 205.371,263.963 212.205,256.963 218.5,249.5C 218.833,248.5 219.5,247.833 220.5,247.5C 227.188,242.812 232.854,237.146 237.5,230.5C 240.407,229.266 242.741,227.266 244.5,224.5C 239.091,219.083 233.424,214.083 227.5,209.5C 226.61,206.776 225.11,204.443 223,202.5C 221.933,201.809 220.766,201.309 219.5,201C 213.605,194.936 207.605,189.103 201.5,183.5C 201.5,181.5 201.5,179.5 201.5,177.5C 202.483,173.702 202.817,169.702 202.5,165.5C 209.18,171.579 215.847,177.579 222.5,183.5C 223.833,184.5 225.167,185.5 226.5,186.5C 233.118,195.118 240.785,202.785 249.5,209.5C 251.833,209.833 253.167,211.167 253.5,213.5C 253.735,214.097 254.235,214.43 255,214.5C 260.708,210.293 265.541,205.293 269.5,199.5C 273.539,194.46 278.206,190.127 283.5,186.5C 289.763,181.742 295.596,176.409 301,170.5C 301.498,167.518 301.665,164.518 301.5,161.5 Z"/></g>
<g><path style="opacity:0.114" fill="#b5c0c2" d="M 300.5,135.5 C 301.011,144.158 301.344,152.825 301.5,161.5C 301.665,164.518 301.498,167.518 301,170.5C 295.596,176.409 289.763,181.742 283.5,186.5C 288.069,180.424 293.236,174.758 299,169.5C 299.743,159.108 299.243,148.774 297.5,138.5C 293.479,140.179 289.479,141.846 285.5,143.5C 285.369,142.624 285.702,141.957 286.5,141.5C 289.847,140.391 292.847,138.724 295.5,136.5C 297.071,135.691 298.738,135.357 300.5,135.5 Z"/></g>
<g><path style="opacity:0.365" fill="#a7b2ba" d="M 414.5,158.5 C 417.117,168.983 419.45,179.649 421.5,190.5C 420.414,190.38 419.747,189.713 419.5,188.5C 417.372,179.195 415.372,169.861 413.5,160.5C 413.543,159.584 413.876,158.917 414.5,158.5 Z"/></g>
<g><path style="opacity:0.161" fill="#bccbcd" d="M 201.5,183.5 C 207.605,189.103 213.605,194.936 219.5,201C 220.766,201.309 221.933,201.809 223,202.5C 225.11,204.443 226.61,206.776 227.5,209.5C 219.235,202.738 211.401,195.405 204,187.5C 203.819,190.695 203.319,193.695 202.5,196.5C 201.523,193.713 201.19,190.713 201.5,187.5C 201.5,186.167 201.5,184.833 201.5,183.5 Z"/></g>
<g><path style="opacity:0.118" fill="#bdd4d6" d="M 226.5,186.5 C 235.188,193.188 242.854,200.854 249.5,209.5C 240.785,202.785 233.118,195.118 226.5,186.5 Z"/></g>
<g><path style="opacity:0.008" fill="#838789" d="M 201.5,187.5 C 201.19,190.713 201.523,193.713 202.5,196.5C 202.5,203.167 202.5,209.833 202.5,216.5C 201.833,211.833 201.167,207.167 200.5,202.5C 200.179,197.305 200.513,192.305 201.5,187.5 Z"/></g>
<g><path style="opacity:0.114" fill="#bdd1d3" d="M 269.5,199.5 C 265.541,205.293 260.708,210.293 255,214.5C 254.235,214.43 253.735,214.097 253.5,213.5C 258.557,208.438 263.89,203.772 269.5,199.5 Z"/></g>
<g><path style="opacity:0.314" fill="#b2b9bc" d="M 421.5,191.5 C 424.225,196.834 424.058,202.168 421,207.5C 415.836,211.834 410.336,212.334 404.5,209C 379.333,184.5 354.167,160 329,135.5C 331.101,185.511 333.601,235.511 336.5,285.5C 335.833,285.5 335.167,285.5 334.5,285.5C 331.304,234.252 328.637,182.919 326.5,131.5C 326.435,131.062 326.601,130.728 327,130.5C 353.553,156.388 380.053,182.221 406.5,208C 414.181,210.826 419.181,208.326 421.5,200.5C 420.313,197.343 420.313,194.343 421.5,191.5 Z"/></g>
<g><path style="opacity:0.212" fill="#eff0f2" d="M 200.5,202.5 C 201.167,207.167 201.833,211.833 202.5,216.5C 202.5,217.167 202.167,217.5 201.5,217.5C 200.513,212.695 200.179,207.695 200.5,202.5 Z"/></g>
<g><path style="opacity:0.161" fill="#acc3c5" d="M 227.5,209.5 C 233.424,214.083 239.091,219.083 244.5,224.5C 242.741,227.266 240.407,229.266 237.5,230.5C 238.96,228.537 240.627,226.704 242.5,225C 237.297,219.965 232.297,214.798 227.5,209.5 Z"/></g>
<g><path style="opacity:0.188" fill="#b1ccce" d="M 298.5,193.5 C 289.134,203.866 279.134,213.533 268.5,222.5C 269.728,219.925 271.395,217.592 273.5,215.5C 281.873,208.122 290.206,200.789 298.5,193.5 Z"/></g>
<g><path style="opacity:0.012" fill="#abb4b7" d="M 302.5,187.5 C 304.657,212.302 305.991,237.302 306.5,262.5C 306.631,263.239 306.464,263.906 306,264.5C 299.909,259.912 294.742,254.578 290.5,248.5C 295.426,251.921 299.926,255.921 304,260.5C 303.301,237.508 302.301,214.508 301,191.5C 300.292,192.381 299.458,193.047 298.5,193.5C 299.415,191.246 300.748,189.246 302.5,187.5 Z"/></g>
<g><path style="opacity:0.2" fill="#f2f3f4" d="M 201.5,219.5 C 201.822,225.358 201.489,231.025 200.5,236.5C 199.347,230.681 199.181,224.681 200,218.5C 200.383,219.056 200.883,219.389 201.5,219.5 Z"/></g>
<g><path style="opacity:0.129" fill="#b8d0d2" d="M 268.5,222.5 C 267.697,223.423 267.53,224.423 268,225.5C 273.37,230.702 278.536,236.035 283.5,241.5C 277.784,237.205 272.284,232.538 267,227.5C 264.662,224.86 265.162,223.193 268.5,222.5 Z"/></g>
<g><path style="opacity:0.277" fill="#e1ecee" d="M 200.5,238.5 C 200.169,246.86 200.502,255.193 201.5,263.5C 207.205,258.787 212.872,254.12 218.5,249.5C 212.205,256.963 205.371,263.963 198,270.5C 197.503,267.854 197.336,265.187 197.5,262.5C 197.796,254.263 198.796,246.263 200.5,238.5 Z"/></g>
<g><path style="opacity:0.149" fill="#acc2c5" d="M 255.5,236.5 C 263.085,242.415 270.085,249.082 276.5,256.5C 268.889,250.557 261.889,243.891 255.5,236.5 Z"/></g>
<g><path style="opacity:0.133" fill="#bdd4d6" d="M 237.5,230.5 C 232.854,237.146 227.188,242.812 220.5,247.5C 225.167,240.833 230.833,235.167 237.5,230.5 Z"/></g>
<g><path style="opacity:0.169" fill="#bad4d6" d="M 255.5,236.5 C 251.441,240.565 247.107,244.232 242.5,247.5C 245.457,242.543 249.457,238.543 254.5,235.5C 255.107,235.624 255.44,235.957 255.5,236.5 Z"/></g>
<g><path style="opacity:0.157" fill="#b0cfd2" d="M 230.5,259.5 C 222.467,268.534 213.8,276.867 204.5,284.5C 211.847,274.821 220.513,266.487 230.5,259.5 Z"/></g>
<g><path style="opacity:0.535" fill="#c9d1d4" d="M 195.5,290.5 C 196.492,290.328 197.158,290.662 197.5,291.5C 196.724,299.475 196.39,307.475 196.5,315.5C 195.508,308.018 195.175,300.352 195.5,292.5C 195.5,291.833 195.5,291.167 195.5,290.5 Z"/></g>
<g><path style="opacity:1" fill="#2d5971" d="M 169.5,290.5 C 169.281,304.677 168.614,318.677 167.5,332.5C 167.813,329.753 167.48,327.086 166.5,324.5C 166.167,324.667 165.833,324.833 165.5,325C 147.805,341.357 129.472,357.024 110.5,372C 109.695,373.113 109.028,374.279 108.5,375.5C 108.5,376.167 108.167,376.5 107.5,376.5C 106.005,376.415 105.005,377.081 104.5,378.5C 123.898,379.819 143.231,379.819 162.5,378.5C 159.474,388.676 157.807,399.01 157.5,409.5C 157.5,407.5 157.5,405.5 157.5,403.5C 132.833,403.5 108.167,403.5 83.5,403.5C 82.67,412.991 82.17,422.658 82,432.5C 80.6353,435.662 78.8019,438.329 76.5,440.5C 76.1667,440.5 75.8333,440.5 75.5,440.5C 72.3752,439.521 69.0419,439.187 65.5,439.5C 63.4998,437.329 61.6665,434.996 60,432.5C 59.3333,416.833 59.3333,401.167 60,385.5C 65.3122,379.856 70.9789,374.523 77,369.5C 77.4643,368.906 77.631,368.239 77.5,367.5C 80.787,366.736 83.4537,364.903 85.5,362C 84.944,361.617 84.6107,361.117 84.5,360.5C 84.8333,360.5 85.1667,360.5 85.5,360.5C 86.552,360.649 87.552,360.483 88.5,360C 115.118,336.362 142.118,313.195 169.5,290.5 Z"/></g>
<g><path style="opacity:0.192" fill="#d9dfe1" d="M 307.5,285.5 C 308.744,295.979 309.411,306.645 309.5,317.5C 308.5,318.167 307.5,318.833 306.5,319.5C 306.92,317.906 307.586,316.406 308.5,315C 308.138,313.775 307.638,312.609 307,311.5C 306.667,304.833 306.333,298.167 306,291.5C 306.087,287.92 304.92,284.92 302.5,282.5C 302.435,282.062 302.601,281.728 303,281.5C 304.371,283.041 305.871,284.375 307.5,285.5 Z"/></g>
<g><path style="opacity:1" fill="#2d5871" d="M 334.5,285.5 C 335.167,285.5 335.833,285.5 336.5,285.5C 336.859,287.371 337.859,288.871 339.5,290C 375.296,320.794 410.796,351.961 446,383.5C 446.667,384.833 447.333,386.167 448,387.5C 448.667,401.833 448.667,416.167 448,430.5C 446.9,434.222 444.734,437.056 441.5,439C 436.616,439.772 431.949,439.272 427.5,437.5C 426.68,435.86 425.847,434.193 425,432.5C 424.5,422.506 424.334,412.506 424.5,402.5C 398.328,402.169 372.328,402.502 346.5,403.5C 346.5,404.167 346.833,404.5 347.5,404.5C 347.5,404.833 347.5,405.167 347.5,405.5C 347.5,408.167 347.5,410.833 347.5,413.5C 346.266,402.153 344.266,390.819 341.5,379.5C 342.15,379.804 342.817,380.137 343.5,380.5C 363.465,379.845 383.465,379.178 403.5,378.5C 394.225,368.883 384.225,360.216 373.5,352.5C 370.891,351.557 368.891,349.89 367.5,347.5C 357.829,337.664 347.663,328.331 337,319.5C 336.501,323.486 336.334,327.486 336.5,331.5C 335.482,316.339 334.815,301.005 334.5,285.5 Z"/></g>
<g><path style="opacity:0.989" fill="#21b1bf" d="M 195.5,292.5 C 195.175,300.352 195.508,308.018 196.5,315.5C 197.167,315.833 197.833,316.167 198.5,316.5C 198.369,317.239 198.536,317.906 199,318.5C 216.528,336.362 234.362,353.862 252.5,371C 256.182,371.157 258.182,369.323 258.5,365.5C 274.695,351.976 290.029,337.31 304.5,321.5C 304.5,320.167 305.167,319.5 306.5,319.5C 307.5,318.833 308.5,318.167 309.5,317.5C 310.49,323.645 310.823,329.978 310.5,336.5C 309.761,336.369 309.094,336.536 308.5,337C 301.524,343.964 294.858,351.13 288.5,358.5C 279.672,365.258 271.672,372.924 264.5,381.5C 268.247,386.252 272.581,390.252 277.5,393.5C 279.833,395.5 282.167,397.5 284.5,399.5C 292.575,409.079 301.242,418.246 310.5,427C 311.094,427.464 311.761,427.631 312.5,427.5C 316.502,432.53 320.836,436.53 325.5,439.5C 327.912,450.593 329.579,461.926 330.5,473.5C 324.773,478.224 319.773,483.558 315.5,489.5C 313.833,490.833 312.167,492.167 310.5,493.5C 298.516,502.818 287.516,513.152 277.5,524.5C 273.263,527.228 269.429,530.561 266,534.5C 265.251,535.635 265.417,536.635 266.5,537.5C 295.573,565.244 324.906,592.577 354.5,619.5C 356.245,626.6 357.245,633.933 357.5,641.5C 355.754,639.748 353.754,638.415 351.5,637.5C 340.485,625.153 328.485,613.819 315.5,603.5C 309.777,596.775 303.444,590.775 296.5,585.5C 296.489,583.983 295.823,582.816 294.5,582C 289.607,577.599 284.607,573.432 279.5,569.5C 273.777,562.775 267.444,556.775 260.5,551.5C 258.766,548.565 256.433,546.732 253.5,546C 248.248,551.083 243.248,556.249 238.5,561.5C 225.87,571.129 214.537,582.129 204.5,594.5C 203.833,594.833 203.167,595.167 202.5,595.5C 198.06,598.763 193.727,602.263 189.5,606C 187.859,607.129 186.859,608.629 186.5,610.5C 185.5,612.167 184.167,613.5 182.5,614.5C 174.02,622.142 165.353,629.642 156.5,637C 153.553,639.436 151.22,642.269 149.5,645.5C 147.973,645.427 146.973,646.094 146.5,647.5C 146.167,647.5 145.833,647.5 145.5,647.5C 146.051,639.247 147.384,631.247 149.5,623.5C 149.369,624.239 149.536,624.906 150,625.5C 154.104,621.905 157.604,617.905 160.5,613.5C 162.5,611.833 164.5,610.167 166.5,608.5C 174.321,601.846 181.988,595.012 189.5,588C 192.447,585.564 194.78,582.731 196.5,579.5C 196.5,578.833 196.833,578.5 197.5,578.5C 197.435,578.938 197.601,579.272 198,579.5C 213.635,565.533 228.968,551.2 244,536.5C 244.528,535.184 244.028,534.517 242.5,534.5C 236.83,527.831 230.497,521.831 223.5,516.5C 218.11,510.108 212.11,504.441 205.5,499.5C 200.11,493.108 194.11,487.441 187.5,482.5C 183.5,477.833 179.167,473.5 174.5,469.5C 175.406,460.301 176.739,451.301 178.5,442.5C 178.351,443.552 178.517,444.552 179,445.5C 200.32,424.013 221.82,402.68 243.5,381.5C 226.846,365.513 210.513,349.18 194.5,332.5C 194.171,318.99 194.504,305.656 195.5,292.5 Z M 279.5,416.5 C 288.553,426.555 298.22,435.888 308.5,444.5C 313.145,449.48 317.812,454.48 322.5,459.5C 315.613,467.556 307.946,474.722 299.5,481C 297.612,483.707 295.612,486.207 293.5,488.5C 291.833,489.5 290.5,490.833 289.5,492.5C 282.685,498.476 275.685,504.309 268.5,510C 263.949,514.048 259.949,518.548 256.5,523.5C 255.833,523.5 255.5,523.833 255.5,524.5C 240.023,509.933 224.356,495.6 208.5,481.5C 203.131,475.13 197.131,469.463 190.5,464.5C 189.19,462.852 187.857,461.186 186.5,459.5C 190.522,455.146 194.522,450.813 198.5,446.5C 201.833,443.833 204.833,440.833 207.5,437.5C 220.114,426.553 232.114,414.887 243.5,402.5C 245.833,400.833 247.833,398.833 249.5,396.5C 250.627,395.878 251.627,395.045 252.5,394C 253.5,393.333 254.5,393.333 255.5,394C 263.088,402.093 271.088,409.593 279.5,416.5 Z"/></g>
<g><path style="opacity:0.333" fill="#b3dade" d="M 198.5,316.5 C 216.854,334.688 235.354,352.688 254,370.5C 255.736,368.937 257.236,367.27 258.5,365.5C 258.182,369.323 256.182,371.157 252.5,371C 234.362,353.862 216.528,336.362 199,318.5C 198.536,317.906 198.369,317.239 198.5,316.5 Z"/></g>
<g><path style="opacity:0.173" fill="#a7b3b9" d="M 167.5,332.5 C 167.572,348.058 165.905,363.391 162.5,378.5C 143.231,379.819 123.898,379.819 104.5,378.5C 105.005,377.081 106.005,376.415 107.5,376.5C 125.005,377.827 142.671,377.827 160.5,376.5C 164.55,360.717 165.884,344.717 164.5,328.5C 147.352,343.147 130.352,357.98 113.5,373C 111.922,374.094 110.255,374.928 108.5,375.5C 109.028,374.279 109.695,373.113 110.5,372C 129.472,357.024 147.805,341.357 165.5,325C 165.833,324.833 166.167,324.667 166.5,324.5C 167.48,327.086 167.813,329.753 167.5,332.5 Z"/></g>
<g><path style="opacity:0.405" fill="#a6b2b9" d="M 367.5,347.5 C 365.068,346.25 362.734,344.75 360.5,343C 353.333,336.5 346.167,330 339,323.5C 338.295,342.038 339.962,360.371 344,378.5C 362.76,377.673 381.593,377.173 400.5,377C 393.189,371.027 385.856,365.027 378.5,359C 376.21,357.223 374.543,355.056 373.5,352.5C 384.225,360.216 394.225,368.883 403.5,378.5C 383.465,379.178 363.465,379.845 343.5,380.5C 342.817,380.137 342.15,379.804 341.5,379.5C 340.27,368.807 338.77,358.14 337,347.5C 336.501,342.177 336.334,336.844 336.5,331.5C 336.334,327.486 336.501,323.486 337,319.5C 347.663,328.331 357.829,337.664 367.5,347.5 Z"/></g>
<g><path style="opacity:0.086" fill="#bdd8d9" d="M 304.5,321.5 C 290.029,337.31 274.695,351.976 258.5,365.5C 270.843,352.998 283.176,340.498 295.5,328C 298.397,325.59 301.397,323.423 304.5,321.5 Z"/></g>
<g><path style="opacity:0.353" fill="#aebcc0" d="M 310.5,336.5 C 311.057,345.52 311.891,354.52 313,363.5C 318.127,388.598 322.294,413.931 325.5,439.5C 320.836,436.53 316.502,432.53 312.5,427.5C 316.067,429.557 319.234,432.223 322,435.5C 322.167,434.5 322.333,433.5 322.5,432.5C 317.348,401.586 312.848,370.586 309,339.5C 302.039,345.724 295.206,352.058 288.5,358.5C 294.858,351.13 301.524,343.964 308.5,337C 309.094,336.536 309.761,336.369 310.5,336.5 Z"/></g>
<g><path style="opacity:0.318" fill="#b2bdc3" d="M 336.5,285.5 C 374.787,317.954 412.287,351.288 449,385.5C 449.667,401.167 449.667,416.833 449,432.5C 446.787,437.945 442.787,441.278 437,442.5C 433.291,441.73 430.125,440.064 427.5,437.5C 431.949,439.272 436.616,439.772 441.5,439C 444.734,437.056 446.9,434.222 448,430.5C 448.667,416.167 448.667,401.833 448,387.5C 447.333,386.167 446.667,384.833 446,383.5C 410.796,351.961 375.296,320.794 339.5,290C 337.859,288.871 336.859,287.371 336.5,285.5 Z"/></g>
<g><path style="opacity:0.075" fill="#c7ccd1" d="M 84.5,360.5 C 84.6107,361.117 84.944,361.617 85.5,362C 83.4537,364.903 80.787,366.736 77.5,367.5C 79.5,364.833 81.8333,362.5 84.5,360.5 Z"/></g>
<g><path style="opacity:0.047" fill="#b2cfd2" d="M 288.5,358.5 C 281.369,366.132 274.036,373.632 266.5,381C 270.003,385.335 273.67,389.501 277.5,393.5C 272.581,390.252 268.247,386.252 264.5,381.5C 271.672,372.924 279.672,365.258 288.5,358.5 Z"/></g>
<g><path style="opacity:0.09" fill="#b5c9cc" d="M 194.5,332.5 C 210.513,349.18 226.846,365.513 243.5,381.5C 221.82,402.68 200.32,424.013 179,445.5C 178.517,444.552 178.351,443.552 178.5,442.5C 183.863,405.677 189.196,369.01 194.5,332.5 Z M 195.5,336.5 C 194.707,342.753 194.207,349.086 194,355.5C 189.331,383.844 184.997,412.177 181,440.5C 201.472,421.029 221.638,401.195 241.5,381C 225.994,366.327 210.661,351.494 195.5,336.5 Z"/></g>
<g><path style="opacity:0.196" fill="#b1ccce" d="M 279.5,416.5 C 271.088,409.593 263.088,402.093 255.5,394C 254.5,393.333 253.5,393.333 252.5,394C 251.627,395.045 250.627,395.878 249.5,396.5C 250.515,392.269 252.848,391.103 256.5,393C 264.445,400.776 272.112,408.609 279.5,416.5 Z"/></g>
<g><path style="opacity:0.682" fill="#abbac2" d="M 77.5,367.5 C 77.631,368.239 77.4643,368.906 77,369.5C 70.9789,374.523 65.3122,379.856 60,385.5C 59.3333,401.167 59.3333,416.833 60,432.5C 61.6665,434.996 63.4998,437.329 65.5,439.5C 61.583,438.752 59.083,436.418 58,432.5C 57.3333,416.833 57.3333,401.167 58,385.5C 58.7922,383.413 59.9588,381.579 61.5,380C 67.4072,376.549 72.7405,372.382 77.5,367.5 Z"/></g>
<g><path style="opacity:0.369" fill="#c0e2e5" d="M 284.5,399.5 C 294.86,407.86 304.194,417.194 312.5,427.5C 311.761,427.631 311.094,427.464 310.5,427C 301.242,418.246 292.575,409.079 284.5,399.5 Z"/></g>
<g><path style="opacity:0.482" fill="#849dab" d="M 346.5,403.5 C 372.328,402.502 398.328,402.169 424.5,402.5C 424.334,412.506 424.5,422.506 425,432.5C 425.847,434.193 426.68,435.86 427.5,437.5C 424.361,435.915 422.694,433.248 422.5,429.5C 423.493,421.016 423.826,412.349 423.5,403.5C 397.833,403.5 372.167,403.5 346.5,403.5 Z"/></g>
<g><path style="opacity:0.144" fill="#ecedee" d="M 83.5,403.5 C 108.167,403.5 132.833,403.5 157.5,403.5C 157.5,405.5 157.5,407.5 157.5,409.5C 156.596,410.209 156.263,411.209 156.5,412.5C 155.833,411.167 155.167,409.833 154.5,408.5C 155.234,407.292 155.567,405.959 155.5,404.5C 132.167,404.5 108.833,404.5 85.5,404.5C 85.8264,413.349 85.493,422.016 84.5,430.5C 83.5067,421.682 83.1734,412.682 83.5,403.5 Z"/></g>
<g><path style="opacity:0.146" fill="#eeeeef" d="M 346.5,403.5 C 372.167,403.5 397.833,403.5 423.5,403.5C 423.826,412.349 423.493,421.016 422.5,429.5C 421.507,421.35 421.174,413.017 421.5,404.5C 396.833,404.5 372.167,404.5 347.5,404.5C 346.833,404.5 346.5,404.167 346.5,403.5 Z"/></g>
<g><path style="opacity:0.043" fill="#cfd3da" d="M 347.5,405.5 C 348.821,410.011 349.821,414.678 350.5,419.5C 348.94,417.844 347.94,415.844 347.5,413.5C 347.5,410.833 347.5,408.167 347.5,405.5 Z"/></g>
<g><path style="opacity:0.016" fill="#acc8ca" d="M 279.5,416.5 C 284.941,420.766 290.274,425.266 295.5,430C 300.344,434.411 304.677,439.244 308.5,444.5C 298.22,435.888 288.553,426.555 279.5,416.5 Z"/></g>
<g><path style="opacity:0.196" fill="#dbdee0" d="M 350.5,420.5 C 351.785,423.589 352.451,426.922 352.5,430.5C 351.069,430.119 350.236,429.119 350,427.5C 349.204,424.961 349.371,422.628 350.5,420.5 Z"/></g>
<g><path style="opacity:0.012" fill="#8d9ca5" d="M 83.5,403.5 C 83.1734,412.682 83.5067,421.682 84.5,430.5C 83.6645,435.332 80.9978,438.665 76.5,440.5C 78.8019,438.329 80.6353,435.662 82,432.5C 82.17,422.658 82.67,412.991 83.5,403.5 Z"/></g>
<g><path style="opacity:0.208" fill="#bcd7d9" d="M 243.5,402.5 C 232.114,414.887 220.114,426.553 207.5,437.5C 207.987,436.527 208.487,435.527 209,434.5C 219.985,424.682 230.485,414.349 240.5,403.5C 241.325,402.614 242.325,402.281 243.5,402.5 Z"/></g>
<g><path style="opacity:0.361" fill="#adb8be" d="M 65.5,439.5 C 69.0419,439.187 72.3752,439.521 75.5,440.5C 74.469,441.249 73.3024,441.915 72,442.5C 69.5848,441.868 67.4181,440.868 65.5,439.5 Z"/></g>
<g><path style="opacity:0.051" fill="#abccd1" d="M 198.5,446.5 C 194.522,450.813 190.522,455.146 186.5,459.5C 187.857,461.186 189.19,462.852 190.5,464.5C 187.728,463.564 185.728,461.73 184.5,459C 188.739,454.255 193.406,450.089 198.5,446.5 Z"/></g>
<g><path style="opacity:0.255" fill="#b0d4d6" d="M 308.5,444.5 C 314.424,449.083 320.091,454.083 325.5,459.5C 315.391,469.95 304.724,479.617 293.5,488.5C 295.612,486.207 297.612,483.707 299.5,481C 307.946,474.722 315.613,467.556 322.5,459.5C 317.812,454.48 313.145,449.48 308.5,444.5 Z"/></g>
<g><path style="opacity:0.047" fill="#bad6da" d="M 190.5,464.5 C 197.131,469.463 203.131,475.13 208.5,481.5C 203.059,477.234 197.726,472.734 192.5,468C 191.177,467.184 190.511,466.017 190.5,464.5 Z"/></g>
<g><path style="opacity:0.255" fill="#bfc5c7" d="M 174.5,469.5 C 179.167,473.5 183.5,477.833 187.5,482.5C 183.263,479.772 179.429,476.439 176,472.5C 173.378,489.105 170.211,505.438 166.5,521.5C 168.198,503.886 170.865,486.552 174.5,469.5 Z"/></g>
<g><path style="opacity:0.055" fill="#bed8db" d="M 187.5,482.5 C 194.11,487.441 200.11,493.108 205.5,499.5C 198.89,494.559 192.89,488.892 187.5,482.5 Z"/></g>
<g><path style="opacity:0.047" fill="#b0b8bb" d="M 352.5,431.5 C 362.042,491.086 371.708,550.753 381.5,610.5C 380.503,610.53 379.836,610.03 379.5,609C 369.9,551.23 360.566,493.397 351.5,435.5C 351.511,433.955 351.844,432.622 352.5,431.5 Z"/></g>
<g><path style="opacity:0.298" fill="#b8d5d7" d="M 205.5,499.5 C 212.11,504.441 218.11,510.108 223.5,516.5C 216.89,511.559 210.89,505.892 205.5,499.5 Z"/></g>
<g><path style="opacity:0.306" fill="#badadd" d="M 208.5,481.5 C 224.356,495.6 240.023,509.933 255.5,524.5C 255.103,525.525 254.437,525.692 253.5,525C 237.619,511.284 222.619,496.784 208.5,481.5 Z"/></g>
<g><path style="opacity:0.227" fill="#b4bcbe" d="M 330.5,473.5 C 334.218,490.89 336.885,508.556 338.5,526.5C 337.778,526.082 337.278,525.416 337,524.5C 334.713,508.736 332.046,493.07 329,477.5C 324.331,481.337 319.831,485.337 315.5,489.5C 319.773,483.558 324.773,478.224 330.5,473.5 Z"/></g>
<g><path style="opacity:0.063" fill="#bcd9dc" d="M 289.5,492.5 C 279.411,503.926 268.411,514.259 256.5,523.5C 259.949,518.548 263.949,514.048 268.5,510C 275.685,504.309 282.685,498.476 289.5,492.5 Z"/></g>
<g><path style="opacity:0.263" fill="#b0d0d3" d="M 223.5,516.5 C 230.497,521.831 236.83,527.831 242.5,534.5C 235.556,529.225 229.223,523.225 223.5,516.5 Z"/></g>
<g><path style="opacity:0.271" fill="#bcd9dc" d="M 310.5,493.5 C 306.615,498.103 302.615,502.603 298.5,507C 297.167,507.667 295.833,508.333 294.5,509C 289.242,514.764 283.576,519.931 277.5,524.5C 287.516,513.152 298.516,502.818 310.5,493.5 Z"/></g>
<g><path style="opacity:0.158" fill="#edeff0" d="M 338.5,526.5 C 339.369,528.984 340.036,531.651 340.5,534.5C 340.457,535.416 340.124,536.083 339.5,536.5C 338.793,533.214 338.46,529.881 338.5,526.5 Z"/></g>
<g><path style="opacity:0.337" fill="#b8dcdf" d="M 277.5,524.5 C 274.003,528.166 270.669,531.999 267.5,536C 295.396,562.732 323.396,589.232 351.5,615.5C 351.5,616.167 351.833,616.5 352.5,616.5C 353.167,616.833 353.833,617.167 354.5,617.5C 354.5,618.167 354.5,618.833 354.5,619.5C 324.906,592.577 295.573,565.244 266.5,537.5C 265.417,536.635 265.251,535.635 266,534.5C 269.429,530.561 273.263,527.228 277.5,524.5 Z"/></g>
<g><path style="opacity:0.314" fill="#b8d9dc" d="M 242.5,534.5 C 244.028,534.517 244.528,535.184 244,536.5C 228.968,551.2 213.635,565.533 198,579.5C 197.601,579.272 197.435,578.938 197.5,578.5C 213.163,564.504 228.163,549.837 242.5,534.5 Z"/></g>
<g><path style="opacity:0.047" fill="#c4d8da" d="M 260.5,551.5 C 258.264,550.611 256.264,549.278 254.5,547.5C 249.443,552.562 244.11,557.228 238.5,561.5C 243.248,556.249 248.248,551.083 253.5,546C 256.433,546.732 258.766,548.565 260.5,551.5 Z"/></g>
<g><path style="opacity:0.239" fill="#bfd4d6" d="M 260.5,551.5 C 267.444,556.775 273.777,562.775 279.5,569.5C 272.556,564.225 266.223,558.225 260.5,551.5 Z"/></g>
<g><path style="opacity:0.224" fill="#b3cfd1" d="M 279.5,569.5 C 284.607,573.432 289.607,577.599 294.5,582C 295.823,582.816 296.489,583.983 296.5,585.5C 290.224,580.893 284.557,575.559 279.5,569.5 Z"/></g>
<g><path style="opacity:0.145" fill="#a8b4b9" d="M 166.5,522.5 C 161.662,555.216 156.828,587.883 152,620.5C 154.588,617.8 157.421,615.467 160.5,613.5C 157.604,617.905 154.104,621.905 150,625.5C 149.536,624.906 149.369,624.239 149.5,623.5C 153.338,595.127 157.505,566.794 162,538.5C 163.199,532.956 164.699,527.623 166.5,522.5 Z"/></g>
<g><path style="opacity:0.051" fill="#b1ced0" d="M 238.5,561.5 C 227.193,572.473 215.86,583.473 204.5,594.5C 214.537,582.129 225.87,571.129 238.5,561.5 Z"/></g>
<g><path style="opacity:0.424" fill="#a5afb5" d="M 340.5,538.5 C 346.452,564.468 351.119,590.801 354.5,617.5C 353.833,617.167 353.167,616.833 352.5,616.5C 351.833,616.5 351.5,616.167 351.5,615.5C 347.725,589.851 344.058,564.184 340.5,538.5 Z"/></g>
<g><path style="opacity:0.212" fill="#bdd5d6" d="M 296.5,585.5 C 303.444,590.775 309.777,596.775 315.5,603.5C 308.556,598.225 302.223,592.225 296.5,585.5 Z"/></g>
<g><path style="opacity:0.09" fill="#bad2d4" d="M 196.5,579.5 C 194.78,582.731 192.447,585.564 189.5,588C 181.988,595.012 174.321,601.846 166.5,608.5C 169.228,604.263 172.561,600.429 176.5,597C 183.038,590.958 189.705,585.125 196.5,579.5 Z"/></g>
<g><path style="opacity:0.039" fill="#b4d5d7" d="M 202.5,595.5 C 197.776,601.227 192.442,606.227 186.5,610.5C 186.859,608.629 187.859,607.129 189.5,606C 193.727,602.263 198.06,598.763 202.5,595.5 Z"/></g>
<g><path style="opacity:0.204" fill="#b4cbcd" d="M 315.5,603.5 C 328.485,613.819 340.485,625.153 351.5,637.5C 344.725,631.898 338.058,626.065 331.5,620C 325.964,614.631 320.63,609.131 315.5,603.5 Z"/></g>
<g><path style="opacity:0.004" fill="#f7f8f9" d="M 381.5,611.5 C 382.301,613.042 382.634,614.708 382.5,616.5C 382.634,614.708 382.301,613.042 381.5,611.5 Z"/></g>
<g><path style="opacity:0.035" fill="#b2cbcf" d="M 182.5,614.5 C 172.062,624.437 161.728,634.604 151.5,645C 150.906,645.464 150.239,645.631 149.5,645.5C 151.22,642.269 153.553,639.436 156.5,637C 165.353,629.642 174.02,622.142 182.5,614.5 Z"/></g>
<g><path style="opacity:0.11" fill="#b5bfc7" d="M 351.5,637.5 C 353.754,638.415 355.754,639.748 357.5,641.5C 358.434,642.568 358.768,643.901 358.5,645.5C 288.175,647.497 217.508,648.163 146.5,647.5C 146.973,646.094 147.973,645.427 149.5,645.5C 218.331,646.499 287.331,646.833 356.5,646.5C 356.657,645.127 356.49,643.793 356,642.5C 354.293,640.963 352.793,639.296 351.5,637.5 Z"/></g>
<g><path style="opacity:0.431" fill="#677c85" d="M 358.5,645.5 C 359.404,646.209 359.737,647.209 359.5,648.5C 287.998,648.833 216.665,648.499 145.5,647.5C 145.833,647.5 146.167,647.5 146.5,647.5C 217.508,648.163 288.175,647.497 358.5,645.5 Z"/></g>
<g><path style="opacity:0.047" fill="#b1b7ba" d="M 154.5,408.5 C 155.167,409.833 155.833,411.167 156.5,412.5C 142.883,501.863 128.549,590.863 113.5,679.5C 99.5,679.5 85.5,679.5 71.5,679.5C 72.2625,678.732 73.2625,678.232 74.5,678C 87.1623,677.5 99.8289,677.333 112.5,677.5C 127.055,587.952 141.055,498.285 154.5,408.5 Z"/></g>
<g><path style="opacity:0.145" fill="#b9bfc5" d="M 373.5,705.5 C 369.515,703.679 366.681,700.679 365,696.5C 363.724,689.522 362.558,682.522 361.5,675.5C 288.5,675.5 215.5,675.5 142.5,675.5C 141.734,681.832 140.901,688.165 140,694.5C 139.284,696.879 138.117,698.879 136.5,700.5C 138.477,691.944 139.811,683.278 140.5,674.5C 214.833,674.5 289.167,674.5 363.5,674.5C 364.447,682.186 365.614,689.853 367,697.5C 369.001,700.331 371.167,702.997 373.5,705.5 Z"/></g>
<g><path style="opacity:0.431" fill="#c0c5c7" d="M 382.5,617.5 C 385.937,637.121 389.27,656.788 392.5,676.5C 404.82,677.333 417.153,677.833 429.5,678C 430.737,678.232 431.737,678.732 432.5,679.5C 418.5,679.5 404.5,679.5 390.5,679.5C 387.56,661.529 384.727,643.529 382,625.5C 381.199,622.633 381.366,619.966 382.5,617.5 Z"/></g>
<g><path style="opacity:0.788" fill="#5f767f" d="M 71.5,679.5 C 85.5,679.5 99.5,679.5 113.5,679.5C 99.6727,680.331 85.6727,680.831 71.5,681C 70.4734,681.513 69.4734,682.013 68.5,682.5C 68.5,681.833 68.5,681.167 68.5,680.5C 69.391,679.89 70.391,679.557 71.5,679.5 Z"/></g>
<g><path style="opacity:0.788" fill="#6a7e87" d="M 390.5,679.5 C 404.5,679.5 418.5,679.5 432.5,679.5C 436.752,680.089 439.419,682.422 440.5,686.5C 438.243,684.077 435.576,682.243 432.5,681C 418.327,680.831 404.327,680.331 390.5,679.5 Z"/></g>
<g><path style="opacity:0.306" fill="#b3b9bc" d="M 68.5,680.5 C 68.5,681.167 68.5,681.833 68.5,682.5C 66.4959,683.673 64.9959,685.34 64,687.5C 63.3333,691.167 63.3333,694.833 64,698.5C 66.2993,700.728 68.4659,703.061 70.5,705.5C 61.5944,701.287 59.0944,694.621 63,685.5C 64.7038,683.627 66.5372,681.96 68.5,680.5 Z"/></g>
<g><path style="opacity:0.51" fill="#6c7f89" d="M 136.5,700.5 C 135.027,703.921 132.361,705.921 128.5,706.5C 123.167,706.5 117.833,706.5 112.5,706.5C 118.294,705.215 124.294,704.382 130.5,704C 132.692,703.074 134.692,701.907 136.5,700.5 Z"/></g>
<g><path style="opacity:0.162" fill="#dfdfdf" d="M 376.5,706.5 C 383.167,706.5 389.833,706.5 396.5,706.5C 396.818,711.032 396.485,715.366 395.5,719.5C 394.517,715.702 394.183,711.702 394.5,707.5C 388.31,707.823 382.31,707.49 376.5,706.5 Z"/></g>
<g><path style="opacity:0.409" fill="#c4cacd" d="M 440.5,686.5 C 444.436,691.445 444.269,696.445 440,701.5C 437.344,703.996 434.344,705.996 431,707.5C 430.501,711.486 430.334,715.486 430.5,719.5C 428.564,715.285 427.897,710.619 428.5,705.5C 439.323,703.526 443.323,697.193 440.5,686.5 Z"/></g>
<g><path style="opacity:0.38" fill="#b0babe" d="M 70.5,705.5 C 74.1667,705.5 77.8333,705.5 81.5,705.5C 81.7787,710.595 81.4454,715.595 80.5,720.5C 79.5151,716.366 79.1818,712.032 79.5,707.5C 76.1709,707.785 73.1709,707.118 70.5,705.5 Z"/></g>
<g><path style="opacity:0.231" fill="#dfdfe1" d="M 112.5,706.5 C 117.833,706.5 123.167,706.5 128.5,706.5C 124.03,707.486 119.363,707.819 114.5,707.5C 114.769,711.931 114.436,716.265 113.5,720.5C 113.167,720.5 112.833,720.5 112.5,720.5C 112.5,715.833 112.5,711.167 112.5,706.5 Z"/></g>
<g><path style="opacity:0.333" fill="#8b9597" d="M 81.5,721.5 C 91.6532,720.506 101.986,720.172 112.5,720.5C 112.833,720.5 113.167,720.5 113.5,720.5C 113.082,721.222 112.416,721.722 111.5,722C 101.423,722.807 91.4229,722.64 81.5,721.5 Z"/></g>
<g><path style="opacity:0.333" fill="#8a969a" d="M 373.5,705.5 C 381.5,705.5 389.5,705.5 397.5,705.5C 397.5,710.5 397.5,715.5 397.5,720.5C 407.5,720.5 417.5,720.5 427.5,720.5C 427.179,715.305 427.513,710.305 428.5,705.5C 427.897,710.619 428.564,715.285 430.5,719.5C 430.047,720.458 429.381,721.292 428.5,722C 418.167,722.667 407.833,722.667 397.5,722C 396.619,721.292 395.953,720.458 395.5,719.5C 396.485,715.366 396.818,711.032 396.5,706.5C 389.833,706.5 383.167,706.5 376.5,706.5C 375.209,706.737 374.209,706.404 373.5,705.5 Z"/></g>
</svg>
