<?xml version="1.0" encoding="UTF-8"?>
<!DOCTYPE svg PUBLIC "-//W3C//DTD SVG 1.1//EN" "http://www.w3.org/Graphics/SVG/1.1/DTD/svg11.dtd">
<svg xmlns="http://www.w3.org/2000/svg" version="1.1" width="990px" height="873px" style="shape-rendering:geometricPrecision; text-rendering:geometricPrecision; image-rendering:optimizeQuality; fill-rule:evenodd; clip-rule:evenodd" xmlns:xlink="http://www.w3.org/1999/xlink">
<g><path style="opacity:0.999" fill="#f5f4f2" d="M 638.5,1.5 C 640.336,3.58797 642.669,4.9213 645.5,5.5C 646.659,7.25027 648.326,8.25027 650.5,8.5C 652.336,10.588 654.669,11.9213 657.5,12.5C 657.833,12.5 658.167,12.5 658.5,12.5C 658.414,13.4959 658.748,14.3292 659.5,15C 667.428,19.4625 675.428,23.6291 683.5,27.5C 684.71,27.9321 685.71,28.5987 686.5,29.5C 687.68,31.913 689.68,32.913 692.5,32.5C 694.34,34.6689 696.674,36.0023 699.5,36.5C 703.261,40.6238 707.928,43.2905 713.5,44.5C 720.932,50.7282 729.266,55.7282 738.5,59.5C 740.819,59.9925 742.819,60.9925 744.5,62.5C 745.401,64.7271 747.067,65.7271 749.5,65.5C 750.167,65.5 750.5,65.8333 750.5,66.5C 752.612,68.7705 755.279,70.1039 758.5,70.5C 759.855,73.5177 762.188,74.851 765.5,74.5C 773.634,81.0759 782.634,86.4093 792.5,90.5C 793.492,90.3284 794.158,90.6618 794.5,91.5C 794.973,92.9063 795.973,93.573 797.5,93.5C 799.139,94.4725 800.473,95.8058 801.5,97.5C 762.348,119.095 723.681,141.429 685.5,164.5C 674.5,170.667 663.5,176.833 652.5,183C 651.748,183.671 651.414,184.504 651.5,185.5C 643.915,168.638 636.748,151.305 630,133.5C 629.329,132.748 628.496,132.414 627.5,132.5C 606.563,120.026 585.563,107.526 564.5,95C 549.833,87 535.167,79 520.5,71C 519.663,69.9887 519.33,68.8221 519.5,67.5C 520.514,66.3263 521.847,65.6596 523.5,65.5C 525.848,65.4077 527.514,64.4077 528.5,62.5C 530.783,62.3921 532.783,61.5588 534.5,60C 535.598,59.2303 535.598,58.397 534.5,57.5C 534.833,57.5 535.167,57.5 535.5,57.5C 536.117,57.6107 536.617,57.944 537,58.5C 540.141,56.6804 543.308,55.0138 546.5,53.5C 551.446,50.2285 556.613,47.2285 562,44.5C 562.333,45.1667 562.667,45.8333 563,46.5C 566.203,42.8224 569.703,39.489 573.5,36.5C 575.354,35.759 577.021,34.759 578.5,33.5C 582.585,33.6277 585.585,31.961 587.5,28.5C 590.204,28.3304 591.871,26.9971 592.5,24.5C 593.167,24.1667 593.833,23.8333 594.5,23.5C 597.063,24.3767 598.73,23.3767 599.5,20.5C 602.734,18.5917 606.067,16.925 609.5,15.5C 610.873,15.6567 612.207,15.49 613.5,15C 614.989,13.5315 616.323,12.0315 617.5,10.5C 619.027,10.573 620.027,9.90632 620.5,8.5C 622.38,8.77089 623.713,8.10422 624.5,6.5C 626.819,6.00751 628.819,5.00751 630.5,3.5C 632.715,0.659895 635.382,-0.006772 638.5,1.5 Z"/></g>
<g><path style="opacity:0.153" fill="#4995c3" d="M 638.5,1.5 C 641.331,2.0787 643.664,3.41203 645.5,5.5C 642.669,4.9213 640.336,3.58797 638.5,1.5 Z"/></g>
<g><path style="opacity:0.329" fill="#4092c2" d="M 630.5,3.5 C 628.819,5.00751 626.819,6.00751 624.5,6.5C 625.911,4.46095 627.911,3.46095 630.5,3.5 Z"/></g>
<g><path style="opacity:0.286" fill="#5b9ec7" d="M 645.5,5.5 C 647.674,5.74973 649.341,6.74973 650.5,8.5C 648.326,8.25027 646.659,7.25027 645.5,5.5 Z"/></g>
<g><path style="opacity:0.212" fill="#418fc2" d="M 624.5,6.5 C 623.713,8.10422 622.38,8.77089 620.5,8.5C 621.514,7.32627 622.847,6.6596 624.5,6.5 Z"/></g>
<g><path style="opacity:0.22" fill="#6ba6cb" d="M 650.5,8.5 C 653.331,9.0787 655.664,10.412 657.5,12.5C 654.669,11.9213 652.336,10.588 650.5,8.5 Z"/></g>
<g><path style="opacity:0.584" fill="#9ec2da" d="M 617.5,10.5 C 616.323,12.0315 614.989,13.5315 613.5,15C 612.207,15.49 610.873,15.6567 609.5,15.5C 611.629,13.0499 614.296,11.3833 617.5,10.5 Z"/></g>
<g><path style="opacity:0.024" fill="#65a4cc" d="M 658.5,12.5 C 666.463,16.7716 674.463,21.1049 682.5,25.5C 683.298,25.9569 683.631,26.6236 683.5,27.5C 675.428,23.6291 667.428,19.4625 659.5,15C 658.748,14.3292 658.414,13.4959 658.5,12.5 Z"/></g>
<g><path style="opacity:0.09" fill="#6ea7cd" d="M 599.5,20.5 C 598.73,23.3767 597.063,24.3767 594.5,23.5C 595.768,21.953 597.435,20.953 599.5,20.5 Z"/></g>
<g><path style="opacity:0.349" fill="#5ca2c7" d="M 592.5,24.5 C 591.871,26.9971 590.204,28.3304 587.5,28.5C 588.129,26.0029 589.796,24.6696 592.5,24.5 Z"/></g>
<g><path style="opacity:0.725" fill="#93b8d3" d="M 686.5,29.5 C 688.819,29.9925 690.819,30.9925 692.5,32.5C 689.68,32.913 687.68,31.913 686.5,29.5 Z"/></g>
<g><path style="opacity:0.678" fill="#aecade" d="M 587.5,28.5 C 585.585,31.961 582.585,33.6277 578.5,33.5C 581.008,31.0764 584.008,29.4097 587.5,28.5 Z"/></g>
<g><path style="opacity:0.035" fill="#4a96c5" d="M 692.5,32.5 C 695.331,33.0787 697.664,34.412 699.5,36.5C 696.674,36.0023 694.34,34.6689 692.5,32.5 Z"/></g>
<g><path style="opacity:0.997" fill="#87a0b9" d="M 478.5,44.5 C 480.004,46.8356 482.004,48.669 484.5,50C 490.886,53.1932 497.22,56.3599 503.5,59.5C 508.833,62.1667 514.167,64.8333 519.5,67.5C 519.33,68.8221 519.663,69.9887 520.5,71C 535.167,79 549.833,87 564.5,95C 585.563,107.526 606.563,120.026 627.5,132.5C 627.67,133.822 627.337,134.989 626.5,136C 552.182,178.491 478.182,221.491 404.5,265C 403.663,266.011 403.33,267.178 403.5,268.5C 380.403,253.106 356.403,238.939 331.5,226C 299.741,207.461 268.075,188.961 236.5,170.5C 240.547,167.563 244.88,165.063 249.5,163C 251.063,162.241 252.063,161.074 252.5,159.5C 254.756,156.595 257.756,154.928 261.5,154.5C 273.769,148.699 285.435,141.865 296.5,134C 304.457,131.161 311.457,126.994 317.5,121.5C 322.746,119.544 327.746,117.044 332.5,114C 335.043,112.618 337.043,110.785 338.5,108.5C 341.311,108.174 343.978,107.341 346.5,106C 351.059,102.563 355.726,99.3963 360.5,96.5C 363.052,94.0568 366.052,92.3901 369.5,91.5C 384.846,83.8328 399.513,75.1661 413.5,65.5C 415.759,62.5905 418.759,60.9239 422.5,60.5C 430.779,56.0249 439.113,51.5249 447.5,47C 448.71,45.9609 449.71,44.7942 450.5,43.5C 454.421,40.696 458.588,38.3627 463,36.5C 468.44,38.6977 473.607,41.3644 478.5,44.5 Z"/></g>
<g><path style="opacity:0.216" fill="#71a8cd" d="M 699.5,36.5 C 704.5,38.6643 709.167,41.331 713.5,44.5C 707.928,43.2905 703.261,40.6238 699.5,36.5 Z"/></g>
<g><path style="opacity:0.381" fill="#bbd2e3" d="M 573.5,36.5 C 569.703,39.489 566.203,42.8224 563,46.5C 562.667,45.8333 562.333,45.1667 562,44.5C 556.613,47.2285 551.446,50.2285 546.5,53.5C 547.11,52.609 547.443,51.609 547.5,50.5C 556.254,45.9549 564.921,41.2883 573.5,36.5 Z"/></g>
<g><path style="opacity:0.173" fill="#5191ba" d="M 450.5,43.5 C 449.71,44.7942 448.71,45.9609 447.5,47C 439.113,51.5249 430.779,56.0249 422.5,60.5C 423.282,58.5487 424.616,57.0487 426.5,56C 434.638,52.011 442.638,47.8444 450.5,43.5 Z"/></g>
<g><path style="opacity:0.247" fill="#438ebc" d="M 478.5,44.5 C 487.68,48.2495 496.013,53.2495 503.5,59.5C 497.22,56.3599 490.886,53.1932 484.5,50C 482.004,48.669 480.004,46.8356 478.5,44.5 Z"/></g>
<g><path style="opacity:0.376" fill="#5ea1c9" d="M 713.5,44.5 C 720.764,48.4245 728.097,52.2578 735.5,56C 736.71,57.0391 737.71,58.2058 738.5,59.5C 729.266,55.7282 720.932,50.7282 713.5,44.5 Z"/></g>
<g><path style="opacity:0.443" fill="#5c9fc8" d="M 547.5,50.5 C 547.443,51.609 547.11,52.609 546.5,53.5C 543.308,55.0138 540.141,56.6804 537,58.5C 536.617,57.944 536.117,57.6107 535.5,57.5C 539.465,55.1816 543.465,52.8483 547.5,50.5 Z"/></g>
<g><path style="opacity:0.294" fill="#569bc8" d="M 534.5,57.5 C 535.598,58.397 535.598,59.2303 534.5,60C 532.783,61.5588 530.783,62.3921 528.5,62.5C 530.5,60.8333 532.5,59.1667 534.5,57.5 Z"/></g>
<g><path style="opacity:0.31" fill="#529ac6" d="M 744.5,62.5 C 746.434,63.1103 748.101,64.1103 749.5,65.5C 747.067,65.7271 745.401,64.7271 744.5,62.5 Z"/></g>
<g><path style="opacity:0.345" fill="#7fb2d0" d="M 528.5,62.5 C 527.514,64.4077 525.848,65.4077 523.5,65.5C 524.659,63.7497 526.326,62.7497 528.5,62.5 Z"/></g>
<g><path style="opacity:0.282" fill="#5499c5" d="M 750.5,66.5 C 753.852,66.53 756.518,67.8633 758.5,70.5C 755.279,70.1039 752.612,68.7705 750.5,66.5 Z"/></g>
<g><path style="opacity:0.482" fill="#77aace" d="M 758.5,70.5 C 761.331,71.0787 763.664,72.412 765.5,74.5C 762.188,74.851 759.855,73.5177 758.5,70.5 Z"/></g>
<g><path style="opacity:0.341" fill="#5b9fc8" d="M 765.5,74.5 C 773.748,78.9605 782.081,83.4605 790.5,88C 791.381,88.7083 792.047,89.5416 792.5,90.5C 782.634,86.4093 773.634,81.0759 765.5,74.5 Z"/></g>
<g><path style="opacity:0.235" fill="#4c8fbc" d="M 413.5,65.5 C 399.513,75.1661 384.846,83.8328 369.5,91.5C 370.141,90.5178 370.807,89.5178 371.5,88.5C 375.627,86.2068 379.627,83.7068 383.5,81C 393.366,75.5671 403.366,70.4004 413.5,65.5 Z"/></g>
<g><path style="opacity:0.176" fill="#619ec8" d="M 794.5,91.5 C 796.027,91.427 797.027,92.0937 797.5,93.5C 795.973,93.573 794.973,92.9063 794.5,91.5 Z"/></g>
<g><path style="opacity:0.255" fill="#5a9ec7" d="M 980.5,95.5 C 980.167,95.5 979.833,95.5 979.5,95.5C 977.024,93.4484 974.358,93.1151 971.5,94.5C 972.134,93.0532 973.301,92.3866 975,92.5C 977.399,92.6132 979.232,93.6132 980.5,95.5 Z"/></g>
<g><path style="opacity:0.218" fill="#549bc6" d="M 797.5,93.5 C 800.367,93.3692 802.033,94.7026 802.5,97.5C 802.167,97.5 801.833,97.5 801.5,97.5C 800.473,95.8058 799.139,94.4725 797.5,93.5 Z"/></g>
<g><path style="opacity:0.999" fill="#fefdfb" d="M 801.5,97.5 C 801.833,97.5 802.167,97.5 802.5,97.5C 803.931,98.7804 804.598,100.447 804.5,102.5C 804.166,105.491 805.166,107.824 807.5,109.5C 807.552,112.346 808.552,114.68 810.5,116.5C 813.201,125.948 816.868,134.948 821.5,143.5C 821.386,146.216 822.386,148.216 824.5,149.5C 824.5,149.833 824.5,150.167 824.5,150.5C 824.34,152.199 824.506,153.866 825,155.5C 826.898,159.742 829.065,163.742 831.5,167.5C 831.629,169.216 831.962,170.883 832.5,172.5C 832.762,173.978 832.429,175.311 831.5,176.5C 827.917,177.78 824.917,179.78 822.5,182.5C 822.167,220.506 822.5,258.506 823.5,296.5C 826.376,298.959 829.376,299.126 832.5,297C 840.433,292.199 848.433,287.699 856.5,283.5C 856.232,285.099 856.566,286.432 857.5,287.5C 862.461,291.32 867.794,294.653 873.5,297.5C 873.665,300.85 873.498,304.183 873,307.5C 865.24,312.296 857.407,316.963 849.5,321.5C 849.624,322.107 849.957,322.44 850.5,322.5C 850.232,324.099 850.566,325.432 851.5,326.5C 853.453,339.613 856.12,352.613 859.5,365.5C 859.253,366.713 858.586,367.38 857.5,367.5C 849.46,362.493 841.46,358.159 833.5,354.5C 802.263,371.873 771.096,389.539 740,407.5C 739.51,406.207 739.343,404.873 739.5,403.5C 739.067,396.539 737.067,390.206 733.5,384.5C 709.828,327.811 686.161,271.144 662.5,214.5C 659.421,204.595 655.754,194.928 651.5,185.5C 651.414,184.504 651.748,183.671 652.5,183C 663.5,176.833 674.5,170.667 685.5,164.5C 723.681,141.429 762.348,119.095 801.5,97.5 Z"/></g>
<g><path style="opacity:0.576" fill="#9cc3da" d="M 961.5,100.5 C 960.358,102.433 958.692,103.933 956.5,105C 955.207,105.49 953.873,105.657 952.5,105.5C 955.008,103.076 958.008,101.41 961.5,100.5 Z"/></g>
<g><path style="opacity:0.937" fill="#9a9997" d="M 975.5,102.5 C 976.209,101.596 977.209,101.263 978.5,101.5C 978.5,136.5 978.5,171.5 978.5,206.5C 978.737,207.791 978.404,208.791 977.5,209.5C 978.16,173.484 977.494,137.818 975.5,102.5 Z"/></g>
<g><path style="opacity:0.482" fill="#4b8fbb" d="M 360.5,96.5 C 355.726,99.3963 351.059,102.563 346.5,106C 343.978,107.341 341.311,108.174 338.5,108.5C 343.436,105.358 348.436,102.191 353.5,99C 355.65,97.5886 357.984,96.7553 360.5,96.5 Z"/></g>
<g><path style="opacity:1" fill="#2d282c" d="M 976.5,209.5 C 947.898,226.139 919.231,242.806 890.5,259.5C 871.428,270.208 852.428,281.208 833.5,292.5C 831.506,257.182 830.84,221.516 831.5,185.5C 841.668,180.587 851.334,174.92 860.5,168.5C 898.277,147.312 935.943,125.979 973.5,104.5C 974.496,104.586 975.329,104.252 976,103.5C 976.5,138.832 976.667,174.165 976.5,209.5 Z"/></g>
<g><path style="opacity:0.584" fill="#8fb9d7" d="M 804.5,102.5 C 806.293,104.426 807.293,106.759 807.5,109.5C 805.166,107.824 804.166,105.491 804.5,102.5 Z"/></g>
<g><path style="opacity:1" fill="#464148" d="M 379.5,107.5 C 405.982,120.903 431.649,135.569 456.5,151.5C 422.135,172.439 387.302,192.773 352,212.5C 349.679,212.091 347.513,211.257 345.5,210C 321.833,196.167 298.167,182.333 274.5,168.5C 309.327,147.629 344.327,127.296 379.5,107.5 Z"/></g>
<g><path style="opacity:0.29" fill="#5098c6" d="M 807.5,109.5 C 809.065,111.509 810.065,113.843 810.5,116.5C 808.552,114.68 807.552,112.346 807.5,109.5 Z"/></g>
<g><path style="opacity:0.263" fill="#60a0ca" d="M 944.5,109.5 C 940.053,113.564 935.053,116.898 929.5,119.5C 929.414,118.504 929.748,117.671 930.5,117C 935.062,114.22 939.728,111.72 944.5,109.5 Z"/></g>
<g><path style="opacity:0.349" fill="#7aafcd" d="M 889.5,119.5 C 885.833,119.5 882.167,119.5 878.5,119.5C 879.694,118.223 881.36,117.556 883.5,117.5C 885.167,117.667 886.833,117.833 888.5,118C 889.056,118.383 889.389,118.883 889.5,119.5 Z"/></g>
<g><path style="opacity:0.416" fill="#458dbb" d="M 338.5,108.5 C 337.043,110.785 335.043,112.618 332.5,114C 327.746,117.044 322.746,119.544 317.5,121.5C 323.861,116.253 330.861,111.92 338.5,108.5 Z"/></g>
<g><path style="opacity:0.962" fill="#f1f2f1" d="M 878.5,119.5 C 882.167,119.5 885.833,119.5 889.5,119.5C 891.404,119.738 892.738,120.738 893.5,122.5C 893.5,123.833 893.5,125.167 893.5,126.5C 887.073,130.395 880.74,130.395 874.5,126.5C 874.5,125.167 874.5,123.833 874.5,122.5C 875.262,120.738 876.596,119.738 878.5,119.5 Z"/></g>
<g><path style="opacity:0.302" fill="#539bc6" d="M 929.5,119.5 C 927.151,121.341 924.485,122.674 921.5,123.5C 923.579,121.127 926.246,119.794 929.5,119.5 Z"/></g>
<g><path style="opacity:0.286" fill="#378abf" d="M 893.5,122.5 C 894.326,127.316 894.826,132.316 895,137.5C 896.725,136.536 898.559,135.869 900.5,135.5C 898.833,136.833 897.167,138.167 895.5,139.5C 893.57,135.627 892.903,131.294 893.5,126.5C 893.5,125.167 893.5,123.833 893.5,122.5 Z"/></g>
<g><path style="opacity:1" fill="#c1c2c2" d="M 874.5,126.5 C 880.74,130.395 887.073,130.395 893.5,126.5C 892.903,131.294 893.57,135.627 895.5,139.5C 888.447,143.199 881.447,147.199 874.5,151.5C 874.5,143.167 874.5,134.833 874.5,126.5 Z"/></g>
<g><path style="opacity:0.404" fill="#73aace" d="M 914.5,127.5 C 914.631,128.376 914.298,129.043 913.5,129.5C 909.69,130.986 906.024,132.653 902.5,134.5C 905.835,131.161 909.835,128.828 914.5,127.5 Z"/></g>
<g><path style="opacity:0.612" fill="#5c96bb" d="M 874.5,122.5 C 874.5,123.833 874.5,125.167 874.5,126.5C 874.5,134.833 874.5,143.167 874.5,151.5C 873.609,152.11 872.609,152.443 871.5,152.5C 872.306,143.577 872.806,134.577 873,125.5C 873.232,124.263 873.732,123.263 874.5,122.5 Z"/></g>
<g><path style="opacity:1" fill="#97b0c9" d="M 627.5,132.5 C 628.496,132.414 629.329,132.748 630,133.5C 636.748,151.305 643.915,168.638 651.5,185.5C 655.754,194.928 659.421,204.595 662.5,214.5C 587.346,258.243 512.346,302.243 437.5,346.5C 435.876,346.64 434.71,345.973 434,344.5C 424.085,319.012 413.918,293.679 403.5,268.5C 403.33,267.178 403.663,266.011 404.5,265C 478.182,221.491 552.182,178.491 626.5,136C 627.337,134.989 627.67,133.822 627.5,132.5 Z"/></g>
<g><path style="opacity:1" fill="#cecdca" d="M 979.5,97.5 C 979.832,134.004 979.498,170.337 978.5,206.5C 978.5,171.5 978.5,136.5 978.5,101.5C 977.209,101.263 976.209,101.596 975.5,102.5C 974.5,102.833 973.833,103.5 973.5,104.5C 935.943,125.979 898.277,147.312 860.5,168.5C 861.596,166.233 863.263,164.4 865.5,163C 903.421,140.887 941.421,119.053 979.5,97.5 Z"/></g>
<g><path style="opacity:0.373" fill="#65a4ce" d="M 810.5,116.5 C 815.506,124.86 819.173,133.86 821.5,143.5C 816.868,134.948 813.201,125.948 810.5,116.5 Z"/></g>
<g><path style="opacity:0.443" fill="#4d8fbb" d="M 317.5,121.5 C 311.457,126.994 304.457,131.161 296.5,134C 285.435,141.865 273.769,148.699 261.5,154.5C 265.766,151.355 270.099,148.188 274.5,145C 288.668,136.683 303.001,128.849 317.5,121.5 Z"/></g>
<g><path style="opacity:0.133" fill="#599ec8" d="M 821.5,143.5 C 823.245,145.033 824.245,147.033 824.5,149.5C 822.386,148.216 821.386,146.216 821.5,143.5 Z"/></g>
<g><path style="opacity:0.989" fill="#eff0f0" d="M 979.5,95.5 C 979.5,96.1667 979.5,96.8333 979.5,97.5C 941.421,119.053 903.421,140.887 865.5,163C 863.263,164.4 861.596,166.233 860.5,168.5C 858.436,168.687 856.436,169.187 854.5,170C 845.612,175.058 836.612,179.891 827.5,184.5C 826.395,183.4 825.062,182.733 823.5,182.5C 823.167,182.5 822.833,182.5 822.5,182.5C 824.917,179.78 827.917,177.78 831.5,176.5C 832.429,175.311 832.762,173.978 832.5,172.5C 833.151,173.091 833.818,173.757 834.5,174.5C 839.67,171.938 844.336,168.938 848.5,165.5C 851.406,164.892 853.74,163.559 855.5,161.5C 860.264,160.388 864.264,158.054 867.5,154.5C 868.514,153.326 869.847,152.66 871.5,152.5C 872.609,152.443 873.609,152.11 874.5,151.5C 881.447,147.199 888.447,143.199 895.5,139.5C 897.167,138.167 898.833,136.833 900.5,135.5C 901.167,135.167 901.833,134.833 902.5,134.5C 906.024,132.653 909.69,130.986 913.5,129.5C 914.298,129.043 914.631,128.376 914.5,127.5C 916.336,125.412 918.669,124.079 921.5,123.5C 924.485,122.674 927.151,121.341 929.5,119.5C 935.053,116.898 940.053,113.564 944.5,109.5C 946.926,107.62 949.592,106.287 952.5,105.5C 953.873,105.657 955.207,105.49 956.5,105C 958.692,103.933 960.358,102.433 961.5,100.5C 964.494,98.0002 967.827,96.0002 971.5,94.5C 974.358,93.1151 977.024,93.4484 979.5,95.5 Z"/></g>
<g><path style="opacity:0.988" fill="#4e4b4d" d="M 975.5,102.5 C 977.494,137.818 978.16,173.484 977.5,209.5C 977.167,209.5 976.833,209.5 976.5,209.5C 976.667,174.165 976.5,138.832 976,103.5C 975.329,104.252 974.496,104.586 973.5,104.5C 973.833,103.5 974.5,102.833 975.5,102.5 Z"/></g>
<g><path style="opacity:0.494" fill="#83b4d5" d="M 824.5,150.5 C 827.4,155.848 829.733,161.515 831.5,167.5C 829.065,163.742 826.898,159.742 825,155.5C 824.506,153.866 824.34,152.199 824.5,150.5 Z"/></g>
<g><path style="opacity:0.325" fill="#70a9cc" d="M 867.5,154.5 C 864.264,158.054 860.264,160.388 855.5,161.5C 858.976,158.377 862.976,156.043 867.5,154.5 Z"/></g>
<g><path style="opacity:0.2" fill="#70a9cc" d="M 855.5,161.5 C 853.74,163.559 851.406,164.892 848.5,165.5C 850.336,163.412 852.669,162.079 855.5,161.5 Z"/></g>
<g><path style="opacity:0.369" fill="#5c9fc9" d="M 848.5,165.5 C 844.336,168.938 839.67,171.938 834.5,174.5C 833.818,173.757 833.151,173.091 832.5,172.5C 831.962,170.883 831.629,169.216 831.5,167.5C 832.379,169.23 833.712,170.563 835.5,171.5C 839.699,169.234 844.033,167.234 848.5,165.5 Z"/></g>
<g><path style="opacity:0.999" fill="#5d6c83" d="M 236.5,170.5 C 268.075,188.961 299.741,207.461 331.5,226C 356.403,238.939 380.403,253.106 403.5,268.5C 413.918,293.679 424.085,319.012 434,344.5C 434.71,345.973 435.876,346.64 437.5,346.5C 437.158,347.338 436.492,347.672 435.5,347.5C 431.46,346.258 427.793,344.258 424.5,341.5C 424.167,342 423.833,342.5 423.5,343C 427.363,352.254 431.029,361.588 434.5,371C 454.091,418.364 473.591,465.864 493,513.5C 496.99,515.912 501.157,517.912 505.5,519.5C 505.842,520.338 506.508,520.672 507.5,520.5C 509.112,524.058 510.445,527.725 511.5,531.5C 511.859,541.224 511.359,550.891 510,560.5C 508.951,558.893 507.451,558.227 505.5,558.5C 499.777,556.823 495.444,553.49 492.5,548.5C 463.399,477.695 434.399,406.862 405.5,336C 403.732,333.447 402.066,330.947 400.5,328.5C 346.436,295.801 291.769,264.134 236.5,233.5C 236.5,233.167 236.5,232.833 236.5,232.5C 236.5,211.833 236.5,191.167 236.5,170.5 Z"/></g>
<g><path style="opacity:1" fill="#9f9e9c" d="M 831.5,185.5 C 830.84,221.516 831.506,257.182 833.5,292.5C 832.791,293.404 831.791,293.737 830.5,293.5C 830.168,257.329 830.502,221.329 831.5,185.5 Z"/></g>
<g><path style="opacity:0.384" fill="#3c8abc" d="M 234.5,169.5 C 235.167,190.5 235.833,211.5 236.5,232.5C 236.5,232.833 236.5,233.167 236.5,233.5C 232.742,235.91 228.742,237.91 224.5,239.5C 224.414,238.504 224.748,237.671 225.5,237C 228.249,235.877 230.749,234.377 233,232.5C 233.168,211.329 233.668,190.329 234.5,169.5 Z"/></g>
<g><path style="opacity:0.674" fill="#4e7fa3" d="M 252.5,159.5 C 252.063,161.074 251.063,162.241 249.5,163C 244.88,165.063 240.547,167.563 236.5,170.5C 236.5,191.167 236.5,211.833 236.5,232.5C 235.833,211.5 235.167,190.5 234.5,169.5C 240.327,165.989 246.327,162.656 252.5,159.5 Z"/></g>
<g><path style="opacity:1" fill="#464148" d="M 662.5,214.5 C 686.161,271.144 709.828,327.811 733.5,384.5C 733.762,385.978 733.429,387.311 732.5,388.5C 656.91,431.815 581.91,475.815 507.5,520.5C 506.508,520.672 505.842,520.338 505.5,519.5C 506.097,519.265 506.43,518.765 506.5,518C 493.068,486.696 480.235,455.196 468,423.5C 465.434,418.078 462.768,412.745 460,407.5C 452.489,387.109 444.322,367.109 435.5,347.5C 436.492,347.672 437.158,347.338 437.5,346.5C 512.346,302.243 587.346,258.243 662.5,214.5 Z"/></g>
<g><path style="opacity:0.863" fill="#b4bec3" d="M 979.5,95.5 C 979.833,95.5 980.167,95.5 980.5,95.5C 981.664,133.664 981.831,171.998 981,210.5C 953.184,227.492 925.018,243.825 896.5,259.5C 894.653,258.427 892.653,258.427 890.5,259.5C 919.231,242.806 947.898,226.139 976.5,209.5C 976.833,209.5 977.167,209.5 977.5,209.5C 978.404,208.791 978.737,207.791 978.5,206.5C 979.498,170.337 979.832,134.004 979.5,97.5C 979.5,96.8333 979.5,96.1667 979.5,95.5 Z"/></g>
<g><path style="opacity:1" fill="#f5f4f2" d="M 236.5,233.5 C 291.769,264.134 346.436,295.801 400.5,328.5C 381.438,341.688 361.438,353.521 340.5,364C 333.426,368.528 326.426,373.028 319.5,377.5C 264.231,345.527 208.898,313.527 153.5,281.5C 153.5,280.167 154.167,279.5 155.5,279.5C 157.966,278.702 159.966,277.369 161.5,275.5C 161.833,275.5 162.167,275.5 162.5,275.5C 164.848,275.408 166.514,274.408 167.5,272.5C 168.5,271.833 169.5,271.167 170.5,270.5C 173.223,269.648 175.89,268.481 178.5,267C 179.252,266.329 179.586,265.496 179.5,264.5C 179.833,264.5 180.167,264.5 180.5,264.5C 180.435,264.938 180.601,265.272 181,265.5C 185.511,263.673 189.345,261.006 192.5,257.5C 195.857,257.784 198.191,256.451 199.5,253.5C 202.812,253.851 205.145,252.518 206.5,249.5C 210.148,247.503 213.814,245.503 217.5,243.5C 219.848,243.408 221.514,242.408 222.5,240.5C 222.842,239.662 223.508,239.328 224.5,239.5C 228.742,237.91 232.742,235.91 236.5,233.5 Z"/></g>
<g><path style="opacity:1" fill="#426c7a" d="M 647.5,234.5 C 648.023,237.89 648.857,241.223 650,244.5C 664.163,276.851 677.663,309.518 690.5,342.5C 690.565,342.938 690.399,343.272 690,343.5C 653.854,323.339 618.02,302.505 582.5,281C 579.392,279.241 576.059,278.408 572.5,278.5C 596.918,263.136 621.918,248.469 647.5,234.5 Z"/></g>
<g><path style="opacity:0.471" fill="#8eb8d5" d="M 222.5,240.5 C 221.514,242.408 219.848,243.408 217.5,243.5C 218.659,241.75 220.326,240.75 222.5,240.5 Z"/></g>
<g><path style="opacity:0.6" fill="#93bcd5" d="M 206.5,249.5 C 205.145,252.518 202.812,253.851 199.5,253.5C 201.336,251.412 203.669,250.079 206.5,249.5 Z"/></g>
<g><path style="opacity:0.486" fill="#8cb9d4" d="M 199.5,253.5 C 198.191,256.451 195.857,257.784 192.5,257.5C 194.336,255.412 196.669,254.079 199.5,253.5 Z"/></g>
<g><path style="opacity:1" fill="#e1e0dd" d="M 971.5,252.5 C 974.102,251.031 976.269,251.698 978,254.5C 981.269,274.167 984.269,293.834 987,313.5C 971.5,323.834 955.333,333 938.5,341C 937.177,341.816 936.511,342.983 936.5,344.5C 934.345,344.372 932.345,344.872 930.5,346C 913.429,356.533 896.096,366.533 878.5,376C 877.748,376.671 877.414,377.504 877.5,378.5C 873.46,379.066 869.793,380.4 866.5,382.5C 863.473,362.741 859.806,343.074 855.5,323.5C 854.264,322.754 852.93,322.421 851.5,322.5C 851.5,323.833 851.5,325.167 851.5,326.5C 850.566,325.432 850.232,324.099 850.5,322.5C 854.699,321.916 858.699,320.416 862.5,318C 898.623,296.857 934.956,276.191 971.5,256C 974.97,253.877 974.97,252.71 971.5,252.5 Z"/></g>
<g><path style="opacity:0.016" fill="#40807f" d="M 955.5,257.5 C 956.833,258.167 956.833,258.167 955.5,257.5 Z"/></g>
<g><path style="opacity:0.302" fill="#81b3d3" d="M 192.5,257.5 C 189.345,261.006 185.511,263.673 181,265.5C 180.601,265.272 180.435,264.938 180.5,264.5C 184.164,261.665 188.164,259.332 192.5,257.5 Z"/></g>
<g><path style="opacity:0.408" fill="#6ba8cd" d="M 179.5,264.5 C 179.586,265.496 179.252,266.329 178.5,267C 175.89,268.481 173.223,269.648 170.5,270.5C 172.597,267.275 175.597,265.275 179.5,264.5 Z"/></g>
<g><path style="opacity:0.998" fill="#f3f2f1" d="M 971.5,252.5 C 974.97,252.71 974.97,253.877 971.5,256C 934.956,276.191 898.623,296.857 862.5,318C 858.699,320.416 854.699,321.916 850.5,322.5C 849.957,322.44 849.624,322.107 849.5,321.5C 857.407,316.963 865.24,312.296 873,307.5C 873.498,304.183 873.665,300.85 873.5,297.5C 874.319,300.305 874.819,303.305 875,306.5C 880.418,303.207 885.918,300.04 891.5,297C 881.947,291.729 872.613,286.229 863.5,280.5C 863.389,279.883 863.056,279.383 862.5,279C 865.706,276.966 869.04,275.133 872.5,273.5C 874.518,282.115 879.851,284.948 888.5,282C 890.081,281.293 891.581,280.46 893,279.5C 893.499,275.514 893.666,271.514 893.5,267.5C 901.972,271.903 910.306,276.57 918.5,281.5C 933.298,273.266 947.965,264.766 962.5,256C 965.309,254.259 968.309,253.092 971.5,252.5 Z"/></g>
<g><path style="opacity:0.427" fill="#96bcd9" d="M 167.5,272.5 C 166.514,274.408 164.848,275.408 162.5,275.5C 163.659,273.75 165.326,272.75 167.5,272.5 Z"/></g>
<g><path style="opacity:0.435" fill="#73aace" d="M 161.5,275.5 C 159.966,277.369 157.966,278.702 155.5,279.5C 156.802,277.178 158.802,275.845 161.5,275.5 Z"/></g>
<g><path style="opacity:1" fill="#cac9c7" d="M 860.5,168.5 C 851.334,174.92 841.668,180.587 831.5,185.5C 830.502,221.329 830.168,257.329 830.5,293.5C 831.791,293.737 832.791,293.404 833.5,292.5C 852.428,281.208 871.428,270.208 890.5,259.5C 892.653,258.427 894.653,258.427 896.5,259.5C 893.829,261.347 892.829,264.014 893.5,267.5C 893.666,271.514 893.499,275.514 893,279.5C 891.581,280.46 890.081,281.293 888.5,282C 879.851,284.948 874.518,282.115 872.5,273.5C 869.04,275.133 865.706,276.966 862.5,279C 863.056,279.383 863.389,279.883 863.5,280.5C 858.677,280.327 856.677,282.661 857.5,287.5C 856.566,286.432 856.232,285.099 856.5,283.5C 848.433,287.699 840.433,292.199 832.5,297C 829.376,299.126 826.376,298.959 823.5,296.5C 822.5,258.506 822.167,220.506 822.5,182.5C 822.833,182.5 823.167,182.5 823.5,182.5C 823.167,220.173 823.5,257.839 824.5,295.5C 825.167,295.833 825.833,296.167 826.5,296.5C 827.5,259.173 827.833,221.839 827.5,184.5C 836.612,179.891 845.612,175.058 854.5,170C 856.436,169.187 858.436,168.687 860.5,168.5 Z"/></g>
<g><path style="opacity:1" fill="#b0afad" d="M 823.5,182.5 C 825.062,182.733 826.395,183.4 827.5,184.5C 827.833,221.839 827.5,259.173 826.5,296.5C 825.833,296.167 825.167,295.833 824.5,295.5C 823.5,257.839 823.167,220.173 823.5,182.5 Z"/></g>
<g><path style="opacity:1" fill="#f0efed" d="M 971.5,264.5 C 972.675,264.281 973.675,264.614 974.5,265.5C 975.348,267.409 975.682,269.409 975.5,271.5C 974.325,271.281 973.325,271.614 972.5,272.5C 974.296,273.141 975.796,274.141 977,275.5C 978.35,282.549 979.517,289.382 980.5,296C 980.252,297.716 979.585,299.216 978.5,300.5C 979.325,301.386 980.325,301.719 981.5,301.5C 982.656,307.412 980.323,310.412 974.5,310.5C 974.5,311.5 974.5,312.5 974.5,313.5C 973.167,313.5 971.833,313.5 970.5,313.5C 970.5,314.5 970.5,315.5 970.5,316.5C 969.167,316.5 967.833,316.5 966.5,316.5C 966.5,317.5 966.5,318.5 966.5,319.5C 967.552,319.351 968.552,319.517 969.5,320C 968.109,321.02 966.609,321.853 965,322.5C 963.211,320.771 961.044,320.104 958.5,320.5C 958.337,318.143 958.503,315.81 959,313.5C 962.542,311.417 966.042,309.25 969.5,307C 968.207,306.51 966.873,306.343 965.5,306.5C 965.567,304.599 965.233,302.766 964.5,301C 965.509,299.832 966.509,298.665 967.5,297.5C 966.635,296.417 965.635,296.251 964.5,297C 961.995,298.753 959.329,300.253 956.5,301.5C 954.809,297.534 953.809,293.368 953.5,289C 953.354,286.966 954.02,285.299 955.5,284C 954.552,283.517 953.552,283.351 952.5,283.5C 951.833,281.181 951.666,278.847 952,276.5C 957.083,273.562 962.25,270.895 967.5,268.5C 968.867,267.16 970.2,265.827 971.5,264.5 Z"/></g>
<g><path style="opacity:1" fill="#b3b2b0" d="M 863.5,280.5 C 872.613,286.229 881.947,291.729 891.5,297C 885.918,300.04 880.418,303.207 875,306.5C 874.819,303.305 874.319,300.305 873.5,297.5C 867.794,294.653 862.461,291.32 857.5,287.5C 856.677,282.661 858.677,280.327 863.5,280.5 Z"/></g>
<g><path style="opacity:1" fill="#b0afad" d="M 153.5,281.5 C 208.898,313.527 264.231,345.527 319.5,377.5C 326.791,396.745 334.624,415.745 343,434.5C 363.461,486.085 384.461,537.418 406,588.5C 407.131,591.445 407.964,594.445 408.5,597.5C 408.5,688.5 408.5,779.5 408.5,870.5C 323.444,821.889 238.611,772.889 154,723.5C 153.5,576.167 153.333,428.834 153.5,281.5 Z"/></g>
<g><path style="opacity:1" fill="#2f2c31" d="M 713.5,387.5 C 699.117,353.874 685.284,319.874 672,285.5C 664.167,268.514 657,251.181 650.5,233.5C 650.735,232.903 651.235,232.57 652,232.5C 669.288,270.103 685.288,308.436 700,347.5C 701.399,350.629 703.065,353.629 705,356.5C 708.847,366.855 712.681,377.188 716.5,387.5C 715.5,387.5 714.5,387.5 713.5,387.5 Z"/></g>
<g><path style="opacity:1" fill="#6b929f" d="M 527.5,408.5 C 525.842,405.672 524.508,402.672 523.5,399.5C 526.436,401.656 529.603,401.99 533,400.5C 533.419,401.672 534.085,402.672 535,403.5C 535.667,402.167 536.333,402.167 537,403.5C 538.314,402.687 539.481,401.687 540.5,400.5C 546.098,398.699 551.431,396.366 556.5,393.5C 557.451,394.326 558.451,394.492 559.5,394C 561.405,392.13 563.572,390.63 566,389.5C 569.083,386.001 571.083,382.001 572,377.5C 572.308,378.308 572.808,378.975 573.5,379.5C 574.738,376.617 576.072,373.783 577.5,371C 576.056,369.874 575.39,368.374 575.5,366.5C 576.132,362.183 576.632,357.85 577,353.5C 577.667,352.167 578.333,352.167 579,353.5C 579.167,353 579.333,352.5 579.5,352C 578.704,350.908 578.037,349.741 577.5,348.5C 576.91,344.112 576.077,339.779 575,335.5C 573.984,334.366 573.317,334.699 573,336.5C 571.289,330.747 568.289,325.747 564,321.5C 563.667,322.167 563.333,322.833 563,323.5C 562.215,321.714 561.049,320.214 559.5,319C 554.001,318.846 550.168,316.346 548,311.5C 547.586,311.957 547.086,312.291 546.5,312.5C 542.826,309.581 538.826,308.581 534.5,309.5C 534.5,307.167 534.5,304.833 534.5,302.5C 537.85,302.289 541.184,302.289 544.5,302.5C 547.975,304.808 551.308,307.308 554.5,310C 556.047,310.333 557.38,309.833 558.5,308.5C 560.167,309.5 561.5,310.833 562.5,312.5C 563.251,311.624 563.751,310.624 564,309.5C 565.333,312.167 567.333,314.167 570,315.5C 570.833,317.5 571.667,319.5 572.5,321.5C 573.251,320.624 573.751,319.624 574,318.5C 577.12,324.648 579.786,330.981 582,337.5C 583.011,336.663 584.178,336.33 585.5,336.5C 585.495,340.964 586.495,345.131 588.5,349C 587.859,356.191 587.026,363.357 586,370.5C 584.453,374.704 582.12,378.371 579,381.5C 578.719,386.103 577.052,390.103 574,393.5C 573.581,392.328 572.915,391.328 572,390.5C 570.623,392.754 569.123,394.92 567.5,397C 567.833,397.333 568.167,397.667 568.5,398C 564.74,398.958 561.573,400.792 559,403.5C 557.739,403.241 556.739,402.574 556,401.5C 548.146,410.005 538.646,412.338 527.5,408.5 Z"/></g>
<g><path style="opacity:1" fill="#749aa6" d="M 533.5,302.5 C 533.833,302.5 534.167,302.5 534.5,302.5C 534.5,304.833 534.5,307.167 534.5,309.5C 538.826,308.581 542.826,309.581 546.5,312.5C 547.086,312.291 547.586,311.957 548,311.5C 550.168,316.346 554.001,318.846 559.5,319C 561.049,320.214 562.215,321.714 563,323.5C 563.333,322.833 563.667,322.167 564,321.5C 568.289,325.747 571.289,330.747 573,336.5C 573.317,334.699 573.984,334.366 575,335.5C 576.077,339.779 576.91,344.112 577.5,348.5C 578.037,349.741 578.704,350.908 579.5,352C 579.333,352.5 579.167,353 579,353.5C 578.333,352.167 577.667,352.167 577,353.5C 576.632,357.85 576.132,362.183 575.5,366.5C 575.39,368.374 576.056,369.874 577.5,371C 576.072,373.783 574.738,376.617 573.5,379.5C 572.808,378.975 572.308,378.308 572,377.5C 571.083,382.001 569.083,386.001 566,389.5C 563.572,390.63 561.405,392.13 559.5,394C 558.451,394.492 557.451,394.326 556.5,393.5C 551.431,396.366 546.098,398.699 540.5,400.5C 539.481,401.687 538.314,402.687 537,403.5C 536.333,402.167 535.667,402.167 535,403.5C 534.085,402.672 533.419,401.672 533,400.5C 529.603,401.99 526.436,401.656 523.5,399.5C 522.801,396.69 521.801,394.023 520.5,391.5C 531.87,394.241 542.203,392.074 551.5,385C 566.836,371.165 569.669,354.998 560,336.5C 553.419,328.163 545.252,322.83 535.5,320.5C 533.843,314.623 533.177,308.623 533.5,302.5 Z"/></g>
<g><path style="opacity:1" fill="#6f939e" d="M 521.5,308.5 C 520.28,310.282 519.614,312.282 519.5,314.5C 519.5,315.167 519.5,315.833 519.5,316.5C 516.117,317.933 512.617,319.267 509,320.5C 506.431,322.734 503.598,324.567 500.5,326C 500.833,326.333 501.167,326.667 501.5,327C 500.167,327.667 498.833,328.333 497.5,329C 497.833,329.333 498.167,329.667 498.5,330C 497.177,330.816 496.511,331.983 496.5,333.5C 495.096,330.683 494.263,327.683 494,324.5C 502.844,318.499 512.011,313.165 521.5,308.5 Z"/></g>
<g><path style="opacity:1" fill="#537a89" d="M 572.5,278.5 C 576.059,278.408 579.392,279.241 582.5,281C 618.02,302.505 653.854,323.339 690,343.5C 690.399,343.272 690.565,342.938 690.5,342.5C 696.934,358.486 703.934,374.153 711.5,389.5C 659.929,419.781 608.263,449.781 556.5,479.5C 550.642,466.44 545.309,453.107 540.5,439.5C 541.514,438.235 543.014,437.569 545,437.5C 574.937,435.523 602.104,426.023 626.5,409C 637.029,399.986 644.029,388.82 647.5,375.5C 647.333,374.5 647.167,373.5 647,372.5C 646.722,373.416 646.222,374.082 645.5,374.5C 651.566,357.537 648.4,342.537 636,329.5C 627.83,321.006 618.663,313.839 608.5,308C 589.676,299.444 570.009,294.278 549.5,292.5C 556.621,287.099 564.287,282.432 572.5,278.5 Z"/></g>
<g><path style="opacity:1" fill="#81a7b1" d="M 532.5,302.5 C 532.833,302.5 533.167,302.5 533.5,302.5C 533.177,308.623 533.843,314.623 535.5,320.5C 545.252,322.83 553.419,328.163 560,336.5C 569.669,354.998 566.836,371.165 551.5,385C 542.203,392.074 531.87,394.241 520.5,391.5C 519.655,390.329 518.989,388.995 518.5,387.5C 518.443,386.391 518.11,385.391 517.5,384.5C 531.555,389.099 543.389,385.433 553,373.5C 554.083,369.249 555.75,365.249 558,361.5C 559.064,344.031 551.397,332.364 535,326.5C 534.057,321.84 533.223,317.173 532.5,312.5C 527.847,311.999 523.514,312.666 519.5,314.5C 519.614,312.282 520.28,310.282 521.5,308.5C 524.678,305.742 528.345,303.742 532.5,302.5 Z"/></g>
<g><path style="opacity:1" fill="#7ea4af" d="M 519.5,316.5 C 519.5,319.833 519.5,323.167 519.5,326.5C 516.094,328.708 512.427,330.708 508.5,332.5C 506.5,334.5 504.5,336.5 502.5,338.5C 501.548,340.045 501.215,341.712 501.5,343.5C 499.981,340.477 498.314,337.477 496.5,334.5C 496.5,334.167 496.5,333.833 496.5,333.5C 496.511,331.983 497.177,330.816 498.5,330C 498.167,329.667 497.833,329.333 497.5,329C 498.833,328.333 500.167,327.667 501.5,327C 501.167,326.667 500.833,326.333 500.5,326C 503.598,324.567 506.431,322.734 509,320.5C 512.617,319.267 516.117,317.933 519.5,316.5 Z"/></g>
<g><path style="opacity:1" fill="#fefdfb" d="M 400.5,328.5 C 402.066,330.947 403.732,333.447 405.5,336C 434.399,406.862 463.399,477.695 492.5,548.5C 492.67,549.822 492.337,550.989 491.5,552C 465.5,567.333 439.5,582.667 413.5,598C 412.207,598.49 410.873,598.657 409.5,598.5C 409.5,597.833 409.167,597.5 408.5,597.5C 407.964,594.445 407.131,591.445 406,588.5C 384.461,537.418 363.461,486.085 343,434.5C 334.624,415.745 326.791,396.745 319.5,377.5C 326.426,373.028 333.426,368.528 340.5,364C 361.438,353.521 381.438,341.688 400.5,328.5 Z"/></g>
<g><path style="opacity:1" fill="#504d54" d="M 496.5,334.5 C 498.314,337.477 499.981,340.477 501.5,343.5C 502.653,348.448 504.319,353.115 506.5,357.5C 508.239,362.638 510.239,367.638 512.5,372.5C 513.11,373.391 513.443,374.391 513.5,375.5C 514.833,378.5 516.167,381.5 517.5,384.5C 518.11,385.391 518.443,386.391 518.5,387.5C 510.24,387.326 504.074,383.659 500,376.5C 497.221,369.831 495.054,362.997 493.5,356C 493.5,350.628 495.166,345.961 498.5,342C 497.129,339.681 496.462,337.181 496.5,334.5 Z"/></g>
<g><path style="opacity:0.998" fill="#f4f4f2" d="M 936.5,344.5 C 941.051,347.943 946.051,350.61 951.5,352.5C 951.67,353.822 951.337,354.989 950.5,356C 932.131,365.846 914.131,376.18 896.5,387C 895.552,387.483 894.552,387.649 893.5,387.5C 887.681,385.239 882.348,382.239 877.5,378.5C 877.414,377.504 877.748,376.671 878.5,376C 896.096,366.533 913.429,356.533 930.5,346C 932.345,344.872 934.345,344.372 936.5,344.5 Z"/></g>
<g><path style="opacity:1" fill="#9cc0c8" d="M 513.5,375.5 C 513.443,374.391 513.11,373.391 512.5,372.5C 526.086,380.651 537.586,378.318 547,365.5C 550.004,355.327 547.837,346.494 540.5,339C 538.339,338.415 536.339,337.582 534.5,336.5C 534.875,330.875 532.209,328.209 526.5,328.5C 524.571,328.54 522.738,328.873 521,329.5C 519.921,332.063 519.421,334.729 519.5,337.5C 510.691,341.088 506.358,347.754 506.5,357.5C 504.319,353.115 502.653,348.448 501.5,343.5C 501.215,341.712 501.548,340.045 502.5,338.5C 504.5,336.5 506.5,334.5 508.5,332.5C 512.427,330.708 516.094,328.708 519.5,326.5C 520.451,325.081 520.784,323.415 520.5,321.5C 524.571,321.234 528.571,321.567 532.5,322.5C 533.841,326.384 534.675,330.384 535,334.5C 544.822,338.321 549.989,345.487 550.5,356C 549.87,360.21 549.036,364.377 548,368.5C 538.356,380.908 526.856,383.242 513.5,375.5 Z"/></g>
<g><path style="opacity:1" fill="#bbdbdf" d="M 534.5,336.5 C 534.201,338.604 534.534,340.604 535.5,342.5C 544.477,349.554 545.811,357.888 539.5,367.5C 529.073,375.026 519.906,373.693 512,363.5C 509.276,356.251 510.109,349.584 514.5,343.5C 515.85,342.05 517.516,341.383 519.5,341.5C 519.5,340.167 519.5,338.833 519.5,337.5C 519.421,334.729 519.921,332.063 521,329.5C 522.738,328.873 524.571,328.54 526.5,328.5C 532.209,328.209 534.875,330.875 534.5,336.5 Z"/></g>
<g><path style="opacity:1" fill="#514c40" d="M 183.5,319.5 C 185.199,319.34 186.866,319.506 188.5,320C 194.685,332.883 200.519,346.049 206,359.5C 207.149,362.393 207.649,365.393 207.5,368.5C 193.362,361.511 179.528,353.845 166,345.5C 165.192,343.421 165.359,341.421 166.5,339.5C 172.639,333.214 178.306,326.547 183.5,319.5 Z"/></g>
<g><path style="opacity:1" fill="#c9981f" d="M 184.5,320.5 C 185.496,320.414 186.329,320.748 187,321.5C 193.38,334.631 199.38,347.965 205,361.5C 205.781,362.944 205.614,364.277 204.5,365.5C 191.892,358.733 179.392,351.733 167,344.5C 166.333,343.5 166.333,342.5 167,341.5C 173.445,334.9 179.278,327.9 184.5,320.5 Z"/></g>
<g><path style="opacity:1" fill="#474131" d="M 183.5,339.5 C 184.583,339.539 185.583,339.873 186.5,340.5C 187.665,339.509 188.832,338.509 190,337.5C 190.5,337.667 191,337.833 191.5,338C 194.496,341.078 195.496,344.578 194.5,348.5C 192.571,347.62 190.737,346.62 189,345.5C 188.5,345.833 188,346.167 187.5,346.5C 188.946,348.618 189.613,350.951 189.5,353.5C 185.483,353.658 182.483,351.991 180.5,348.5C 183.077,346.08 184.077,343.08 183.5,339.5 Z"/></g>
<g><path style="opacity:1" fill="#3b3932" d="M 183.5,339.5 C 181.077,340.356 178.911,339.689 177,337.5C 176.202,335.741 176.369,334.074 177.5,332.5C 178.72,331.289 179.887,331.289 181,332.5C 182.903,334.441 183.736,336.774 183.5,339.5 Z"/></g>
<g><path style="opacity:1" fill="#edecea" d="M 941.5,281.5 C 943.144,281.286 944.644,281.62 946,282.5C 946.758,284.769 946.591,286.936 945.5,289C 949.028,294.992 947.361,298.492 940.5,299.5C 940.281,300.675 940.614,301.675 941.5,302.5C 947.492,297.496 950.159,298.829 949.5,306.5C 948.448,306.351 947.448,306.517 946.5,307C 944.469,309.243 942.136,311.077 939.5,312.5C 940.328,313.415 941.328,314.081 942.5,314.5C 948.662,306.148 950.995,306.814 949.5,316.5C 950.325,317.386 951.325,317.719 952.5,317.5C 952.5,320.167 952.5,322.833 952.5,325.5C 936.324,333.259 920.657,342.093 905.5,352C 904.552,352.483 903.552,352.649 902.5,352.5C 901.986,350.488 901.82,348.488 902,346.5C 904.08,344.877 906.246,343.377 908.5,342C 906.22,341.788 904.22,340.955 902.5,339.5C 901.816,342.679 900.149,345.179 897.5,347C 900.379,348.666 901.212,351.166 900,354.5C 898.758,355.872 897.258,356.872 895.5,357.5C 894.081,355.042 893.081,352.375 892.5,349.5C 892.167,349.667 891.833,349.833 891.5,350C 892.37,352.936 892.37,356.103 891.5,359.5C 887.451,362.05 883.284,364.383 879,366.5C 878.055,366.095 877.388,365.428 877,364.5C 876.506,366.134 876.34,367.801 876.5,369.5C 874.323,369.586 872.323,370.253 870.5,371.5C 867.601,368.172 867.934,365.339 871.5,363C 870.552,362.517 869.552,362.351 868.5,362.5C 867.637,360.105 867.637,357.771 868.5,355.5C 870.429,354.62 872.263,353.62 874,352.5C 874.873,352.735 875.707,353.069 876.5,353.5C 877.248,351.668 878.248,350.001 879.5,348.5C 879.167,348.167 878.833,347.833 878.5,347.5C 876.506,349.917 874.673,349.917 873,347.5C 872.578,351.05 870.578,353.05 867,353.5C 864.845,350.46 865.012,347.627 867.5,345C 866.552,344.517 865.552,344.351 864.5,344.5C 863.538,336.965 866.705,333.631 874,334.5C 874.273,332.671 875.107,331.171 876.5,330C 870.758,331.354 869.091,329.188 871.5,323.5C 873.564,321.739 875.731,321.405 878,322.5C 878.645,317.513 881.312,315.847 886,317.5C 886.401,313.956 888.401,311.956 892,311.5C 894.134,313.287 894.967,315.62 894.5,318.5C 895.822,318.33 896.989,318.663 898,319.5C 899.577,324.079 898.077,327.079 893.5,328.5C 892.066,326.78 891.233,324.78 891,322.5C 889.306,324.57 889.139,326.736 890.5,329C 888.198,330.824 885.865,332.658 883.5,334.5C 883.833,334.833 884.167,335.167 884.5,335.5C 888.308,333.355 892.308,331.689 896.5,330.5C 896.62,332.199 896.954,333.865 897.5,335.5C 898.304,337.957 899.304,337.957 900.5,335.5C 897.612,331.836 897.945,328.503 901.5,325.5C 899.462,322.456 899.128,319.29 900.5,316C 898.866,315.506 897.199,315.34 895.5,315.5C 895.192,313.076 895.526,310.743 896.5,308.5C 906.161,303.176 915.828,297.843 925.5,292.5C 927.476,297.584 925.809,300.75 920.5,302C 921.448,302.483 922.448,302.649 923.5,302.5C 922.905,305.346 922.905,308.346 923.5,311.5C 924.552,311.649 925.552,311.483 926.5,311C 923.486,307.131 923.819,303.798 927.5,301C 928.635,300.251 929.635,300.417 930.5,301.5C 931.041,303.535 931.708,305.535 932.5,307.5C 934.51,306.498 936.51,305.498 938.5,304.5C 937.005,304.522 935.338,304.189 933.5,303.5C 932.811,301.556 932.311,299.556 932,297.5C 930.989,296.663 929.822,296.33 928.5,296.5C 927.729,292.205 929.229,289.205 933,287.5C 933.772,287.645 934.439,287.978 935,288.5C 936.658,285.676 938.825,283.342 941.5,281.5 Z"/></g>
<g><path style="opacity:1" fill="#b0afad" d="M 857.5,367.5 C 860.344,371.694 862.01,376.361 862.5,381.5C 863.689,382.429 865.022,382.762 866.5,382.5C 869.793,380.4 873.46,379.066 877.5,378.5C 882.348,382.239 887.681,385.239 893.5,387.5C 893.5,478.167 893.5,568.833 893.5,659.5C 873.532,647.847 853.532,636.18 833.5,624.5C 833.5,534.5 833.5,444.5 833.5,354.5C 841.46,358.159 849.46,362.493 857.5,367.5 Z"/></g>
<g><path style="opacity:0.995" fill="#d0d0cc" d="M 951.5,352.5 C 952.117,352.611 952.617,352.944 953,353.5C 953.833,444.502 953.667,535.502 952.5,626.5C 932.839,637.49 913.173,648.49 893.5,659.5C 893.5,568.833 893.5,478.167 893.5,387.5C 894.552,387.649 895.552,387.483 896.5,387C 914.131,376.18 932.131,365.846 950.5,356C 951.337,354.989 951.67,353.822 951.5,352.5 Z"/></g>
<g><path style="opacity:0.998" fill="#d1d0cc" d="M 833.5,354.5 C 833.5,444.5 833.5,534.5 833.5,624.5C 711.399,694.873 589.733,765.707 468.5,837C 462.682,839.41 457.015,842.077 451.5,845C 437.635,853.694 423.635,862.194 409.5,870.5C 410.138,779.793 410.138,689.127 409.5,598.5C 410.873,598.657 412.207,598.49 413.5,598C 439.5,582.667 465.5,567.333 491.5,552C 492.337,550.989 492.67,549.822 492.5,548.5C 495.444,553.49 499.777,556.823 505.5,558.5C 509.164,563.723 512.831,563.557 516.5,558C 533.462,548.852 550.129,539.185 566.5,529C 623.849,496.329 680.849,463.162 737.5,429.5C 738.498,420.859 738.831,412.192 738.5,403.5C 738.833,403.5 739.167,403.5 739.5,403.5C 739.343,404.873 739.51,406.207 740,407.5C 771.096,389.539 802.263,371.873 833.5,354.5 Z"/></g>
<g><path style="opacity:1" fill="#5b8ca2" d="M 650.5,233.5 C 657,251.181 664.167,268.514 672,285.5C 685.284,319.874 699.117,353.874 713.5,387.5C 713.167,388.5 712.5,389.167 711.5,389.5C 703.934,374.153 696.934,358.486 690.5,342.5C 677.663,309.518 664.163,276.851 650,244.5C 648.857,241.223 648.023,237.89 647.5,234.5C 648.391,233.89 649.391,233.557 650.5,233.5 Z"/></g>
<g><path style="opacity:1" fill="#aaccd3" d="M 534.5,336.5 C 536.339,337.582 538.339,338.415 540.5,339C 547.837,346.494 550.004,355.327 547,365.5C 537.586,378.318 526.086,380.651 512.5,372.5C 510.239,367.638 508.239,362.638 506.5,357.5C 506.358,347.754 510.691,341.088 519.5,337.5C 519.5,338.833 519.5,340.167 519.5,341.5C 517.516,341.383 515.85,342.05 514.5,343.5C 510.109,349.584 509.276,356.251 512,363.5C 519.906,373.693 529.073,375.026 539.5,367.5C 545.811,357.888 544.477,349.554 535.5,342.5C 534.534,340.604 534.201,338.604 534.5,336.5 Z"/></g>
<g><path style="opacity:1" fill="#eefbfc" d="M 538.5,357.5 C 539.88,360.17 539.547,362.67 537.5,365C 529.542,370.064 522.042,369.564 515,363.5C 514.174,360.788 514.674,358.455 516.5,356.5C 517.458,356.047 518.292,355.381 519,354.5C 519.511,352.122 520.178,349.788 521,347.5C 529.573,343.205 534.406,345.872 535.5,355.5C 536.518,356.193 537.518,356.859 538.5,357.5 Z"/></g>
<g><path style="opacity:1" fill="#d5eef0" d="M 538.5,357.5 C 537.518,356.859 536.518,356.193 535.5,355.5C 534.406,345.872 529.573,343.205 521,347.5C 520.178,349.788 519.511,352.122 519,354.5C 518.292,355.381 517.458,356.047 516.5,356.5C 517.979,351.648 518.979,346.648 519.5,341.5C 530.458,336.658 535.791,340.324 535.5,352.5C 536.5,352.5 537.5,352.5 538.5,352.5C 538.5,354.167 538.5,355.833 538.5,357.5 Z"/></g>
<g><path style="opacity:1" fill="#bfbebc" d="M 866.5,382.5 C 865.022,382.762 863.689,382.429 862.5,381.5C 862.01,376.361 860.344,371.694 857.5,367.5C 858.586,367.38 859.253,366.713 859.5,365.5C 856.12,352.613 853.453,339.613 851.5,326.5C 851.5,325.167 851.5,323.833 851.5,322.5C 852.93,322.421 854.264,322.754 855.5,323.5C 859.806,343.074 863.473,362.741 866.5,382.5 Z"/></g>
<g><path style="opacity:1" fill="#628998" d="M 549.5,292.5 C 570.009,294.278 589.676,299.444 608.5,308C 618.663,313.839 627.83,321.006 636,329.5C 648.4,342.537 651.566,357.537 645.5,374.5C 643.713,378.075 641.879,381.741 640,385.5C 628.389,400.07 613.889,410.904 596.5,418C 577.265,425.747 557.265,429.58 536.5,429.5C 533.659,422.521 530.659,415.521 527.5,408.5C 538.646,412.338 548.146,410.005 556,401.5C 556.739,402.574 557.739,403.241 559,403.5C 561.573,400.792 564.74,398.958 568.5,398C 568.167,397.667 567.833,397.333 567.5,397C 569.123,394.92 570.623,392.754 572,390.5C 572.915,391.328 573.581,392.328 574,393.5C 577.052,390.103 578.719,386.103 579,381.5C 582.12,378.371 584.453,374.704 586,370.5C 587.026,363.357 587.859,356.191 588.5,349C 586.495,345.131 585.495,340.964 585.5,336.5C 584.178,336.33 583.011,336.663 582,337.5C 579.786,330.981 577.12,324.648 574,318.5C 573.751,319.624 573.251,320.624 572.5,321.5C 571.667,319.5 570.833,317.5 570,315.5C 567.333,314.167 565.333,312.167 564,309.5C 563.751,310.624 563.251,311.624 562.5,312.5C 561.5,310.833 560.167,309.5 558.5,308.5C 557.38,309.833 556.047,310.333 554.5,310C 551.308,307.308 547.975,304.808 544.5,302.5C 541.184,302.289 537.85,302.289 534.5,302.5C 534.167,302.5 533.833,302.5 533.5,302.5C 533.167,302.5 532.833,302.5 532.5,302.5C 537.665,298.414 543.332,295.08 549.5,292.5 Z"/></g>
<g><path style="opacity:1" fill="#92b7c0" d="M 517.5,384.5 C 516.167,381.5 514.833,378.5 513.5,375.5C 526.856,383.242 538.356,380.908 548,368.5C 549.036,364.377 549.87,360.21 550.5,356C 549.989,345.487 544.822,338.321 535,334.5C 534.675,330.384 533.841,326.384 532.5,322.5C 528.571,321.567 524.571,321.234 520.5,321.5C 520.784,323.415 520.451,325.081 519.5,326.5C 519.5,323.167 519.5,319.833 519.5,316.5C 519.5,315.833 519.5,315.167 519.5,314.5C 523.514,312.666 527.847,311.999 532.5,312.5C 533.223,317.173 534.057,321.84 535,326.5C 551.397,332.364 559.064,344.031 558,361.5C 555.75,365.249 554.083,369.249 553,373.5C 543.389,385.433 531.555,389.099 517.5,384.5 Z"/></g>
<g><path style="opacity:1" fill="#466f7d" d="M 540.5,439.5 C 538.654,436.46 537.321,433.127 536.5,429.5C 557.265,429.58 577.265,425.747 596.5,418C 613.889,410.904 628.389,400.07 640,385.5C 641.879,381.741 643.713,378.075 645.5,374.5C 646.222,374.082 646.722,373.416 647,372.5C 647.167,373.5 647.333,374.5 647.5,375.5C 644.029,388.82 637.029,399.986 626.5,409C 602.104,426.023 574.937,435.523 545,437.5C 543.014,437.569 541.514,438.235 540.5,439.5 Z"/></g>
<g><path style="opacity:1" fill="#95adc6" d="M 733.5,384.5 C 737.067,390.206 739.067,396.539 739.5,403.5C 739.167,403.5 738.833,403.5 738.5,403.5C 738.5,402.167 738.5,400.833 738.5,399.5C 730.307,402.936 722.64,407.436 715.5,413C 696.67,422.912 678.336,433.578 660.5,445C 610.478,473.34 560.811,502.174 511.5,531.5C 510.445,527.725 509.112,524.058 507.5,520.5C 581.91,475.815 656.91,431.815 732.5,388.5C 733.429,387.311 733.762,385.978 733.5,384.5 Z"/></g>
<g><path style="opacity:1" fill="#73879f" d="M 738.5,403.5 C 738.831,412.192 738.498,420.859 737.5,429.5C 680.849,463.162 623.849,496.329 566.5,529C 550.129,539.185 533.462,548.852 516.5,558C 512.831,563.557 509.164,563.723 505.5,558.5C 507.451,558.227 508.951,558.893 510,560.5C 511.359,550.891 511.859,541.224 511.5,531.5C 560.811,502.174 610.478,473.34 660.5,445C 678.336,433.578 696.67,422.912 715.5,413C 722.64,407.436 730.307,402.936 738.5,399.5C 738.5,400.833 738.5,402.167 738.5,403.5 Z"/></g>
<g><path style="opacity:1" fill="#2d292e" d="M 435.5,347.5 C 444.322,367.109 452.489,387.109 460,407.5C 462.768,412.745 465.434,418.078 468,423.5C 480.235,455.196 493.068,486.696 506.5,518C 506.43,518.765 506.097,519.265 505.5,519.5C 501.157,517.912 496.99,515.912 493,513.5C 473.591,465.864 454.091,418.364 434.5,371C 431.029,361.588 427.363,352.254 423.5,343C 423.833,342.5 424.167,342 424.5,341.5C 427.793,344.258 431.46,346.258 435.5,347.5 Z"/></g>
<g><path style="opacity:1" fill="#2d282d" d="M 479.5,365.5 C 480.497,365.47 481.164,365.97 481.5,367C 496.376,400.791 510.376,434.958 523.5,469.5C 518.557,470.943 513.557,471.777 508.5,472C 505.603,466.808 503.603,461.308 502.5,455.5C 505.386,455.39 507.72,454.223 509.5,452C 500.557,429.428 491.223,407.094 481.5,385C 478.246,385.135 475.08,384.969 472,384.5C 470.265,379.794 468.431,375.127 466.5,370.5C 470.736,368.367 475.069,366.701 479.5,365.5 Z"/></g>
<g><path style="opacity:1" fill="#c2c1bf" d="M 802.5,413.5 C 807.266,412.551 811.1,413.884 814,417.5C 814.989,481.224 814.656,544.891 813,608.5C 810.641,613.533 807.474,618.033 803.5,622C 771.214,640.255 738.881,658.589 706.5,677C 700.958,678.892 697.458,677.059 696,671.5C 695.333,610.167 695.333,548.833 696,487.5C 697.669,478.826 702.169,471.992 709.5,467C 740.926,449.703 771.926,431.869 802.5,413.5 Z"/></g>
<g><path style="opacity:1" fill="#d1d0cc" d="M 802.5,416.5 C 805.97,415.875 808.804,416.875 811,419.5C 811.989,482.891 811.656,546.224 810,609.5C 807.955,612.423 805.788,615.257 803.5,618C 773.113,635.367 742.78,653.034 712.5,671C 707.953,673.854 703.453,674.02 699,671.5C 698.333,608.833 698.333,546.167 699,483.5C 702.23,475.937 707.73,470.771 715.5,468C 716.5,466.333 717.833,465 719.5,464C 747.83,449.135 775.496,433.302 802.5,416.5 Z"/></g>
<g><path style="opacity:0.016" fill="#40807f" d="M 802.5,646.5 C 803.833,647.167 803.833,647.167 802.5,646.5 Z"/></g>
<g><path style="opacity:1" fill="#c3c2c0" d="M 666.5,491.5 C 669.518,491.335 672.518,491.502 675.5,492C 677.768,493.558 678.934,495.724 679,498.5C 679.667,559.5 679.667,620.5 679,681.5C 678.587,684.232 677.92,686.899 677,689.5C 673.148,695.017 668.315,699.517 662.5,703C 589.877,744.93 517.21,786.93 444.5,829C 440.091,830.262 436.257,829.428 433,826.5C 432.333,762.5 432.333,698.5 433,634.5C 436.81,627.025 442.31,621.191 449.5,617C 522.234,575.414 594.567,533.58 666.5,491.5 Z"/></g>
<g><path style="opacity:1" fill="#d1d0cc" d="M 666.5,495.5 C 670.287,494.814 673.454,495.814 676,498.5C 676.667,560.5 676.667,622.5 676,684.5C 672.942,690.894 668.442,696.06 662.5,700C 589.24,741.789 516.24,783.789 443.5,826C 440.356,826.952 437.856,826.119 436,823.5C 435.333,761.167 435.333,698.833 436,636.5C 436.249,633.823 437.249,631.49 439,629.5C 444.285,624.206 450.118,619.706 456.5,616C 526.744,575.847 596.744,535.68 666.5,495.5 Z"/></g>
<g><path style="opacity:1" fill="#bdbcba" d="M 408.5,597.5 C 409.167,597.5 409.5,597.833 409.5,598.5C 410.138,689.127 410.138,779.793 409.5,870.5C 409.167,870.5 408.833,870.5 408.5,870.5C 408.5,779.5 408.5,688.5 408.5,597.5 Z"/></g>
</svg>
