<?xml version="1.0" encoding="utf-8"?>
<svg viewBox="0 0 757.49 200.11" xmlns="http://www.w3.org/2000/svg">
  <g transform="matrix(1, 0, 0, 1, 0.568516, 0.442001)">
    <path class="st6" d="M214.67 20.96C214.67 9.39 224.05 0 235.62 0h500.91c11.58 0 20.96 9.38 20.96 20.96v158.2c0 11.58-9.38 20.96-20.96 20.95H235.62c-11.57 0-20.95-9.38-20.95-20.95V20.96zM0 20.96C0 9.39 9.38 0 20.95 0h158.2c11.58 0 20.96 9.38 20.96 20.96v158.2c0 11.58-9.38 20.96-20.96 20.95H20.95C9.38 200.11 0 190.73 0 179.16V20.96z" style="fill: rgb(242, 85, 0);"/>
    <path class="st5" d="M301.75 71.21c-5.44 0-10.48 1.72-14.62 4.64a25.31 25.31 0 0 0-14.63-4.64c-14.02 0-25.43 11.41-25.43 25.43v34.44h21.61V96.64a3.82 3.82 0 1 1 7.64 0v34.44h21.6V96.64c0-2.11 1.72-3.82 3.82-3.82 2.11 0 3.82 1.72 3.82 3.82v34.44h21.6V96.64c.02-14.02-11.39-25.43-25.41-25.43M560.54 109.92c-4.72 0-8.56-3.83-8.56-8.55 0-4.72 3.84-8.56 8.56-8.56 4.72 0 8.56 3.84 8.56 8.56 0 4.72-3.85 8.55-8.56 8.55m0-38.71c-16.63 0-30.16 13.53-30.16 30.16s13.53 30.16 30.16 30.16c16.63 0 30.16-13.53 30.16-30.16s-13.53-30.16-30.16-30.16M517.25 67.55c0-2.11 1.72-3.82 3.82-3.82h11.86V42.11h-11.86c-14.02 0-25.43 11.41-25.43 25.43v63.53h21.61V93.2h9.82V71.6h-9.82v-4.05zM630.18 71.69h-8.78c-14.02 0-25.43 11.41-25.43 25.43v33.95h21.61V97.12a3.82 3.82 0 0 1 3.82-3.82h8.78V71.69zM477.14 45.9c-6.11 0-11.07 4.96-11.07 11.07s4.96 11.07 11.07 11.07 11.07-4.96 11.07-11.07c-.01-6.11-4.97-11.07-11.07-11.07m-10.81 25.79h21.61v59.39h-21.61V71.69zM649.58 45.68c-6.12 0-11.08 4.96-11.08 11.07s4.96 11.07 11.08 11.07c6.11 0 11.07-4.96 11.07-11.07s-4.96-11.07-11.07-11.07m-10.8 25.78h21.6V135c0 14.02-11.4 25.43-25.43 25.43h-11.86v-21.61h11.86c2.11 0 3.82-1.72 3.82-3.82V71.46zM695.61 71.21c-16.65 0-30.19 13.54-30.19 30.18 0 17.21 12.98 30.18 30.19 30.18 1.37 0 2.79-.11 4.22-.32v-22.28c-1.09.54-2.97 1-4.22 1-5.93 0-8.58-4.31-8.58-8.58 0-4.73 3.85-8.58 8.58-8.58s8.58 3.85 8.58 8.58v29.68h21.61V101.4c0-16.65-13.55-30.19-30.19-30.19M362.1 71.21c-16.65 0-30.18 13.54-30.18 30.18 0 17.21 12.98 30.18 30.18 30.18 1.37 0 2.79-.11 4.23-.32v-22.28c-1.09.54-2.98 1-4.23 1-5.93 0-8.58-4.31-8.58-8.58 0-4.73 3.85-8.58 8.58-8.58s8.58 3.85 8.58 8.58v29.68h21.61V101.4c0-16.65-13.54-30.19-30.19-30.19M462.59 71.69h-27.28l-5.98 8.87-5.99-8.87h-27.27l19.62 29.07-20.46 30.32h27.27l6.83-10.12 6.82 10.12h27.28l-20.47-30.32zM79.87 55.78c2.89 2.9 6.75 4.5 10.84 4.5 8.46 0 15.33-6.88 15.33-15.33s-6.88-15.34-15.33-15.34-15.33 6.88-15.33 15.33c0 4.09 1.59 7.94 4.49 10.84m97.84 68.99-6.98 6.98c-1.85 1.85-4.29 2.87-6.9 2.87s-5.07-1.02-6.91-2.86l-8.56-8.56-.17-.15c-.74-.54-1.65-.83-2.63-.83-1.5 0-3.01.66-4.15 1.81-1.15 1.15-1.81 2.66-1.81 4.15 0 1.21.44 2.32 1.24 3.11l8.25 8.3c3.8 3.81 3.8 10.01 0 13.82l-5.35 5.34a9.706 9.706 0 0 1-6.91 2.87c-2.61 0-5.07-1.01-6.9-2.87l-7.75-7.74-.11-.1c-1-.94-2.3-1.46-3.67-1.46-1.08 0-2.69.32-4.3 1.84L97.78 167.6a9.869 9.869 0 0 1-7.05 2.93c-2.66 0-5.17-1.04-7.05-2.93l-61.21-61.21c-3.89-3.89-3.89-10.21 0-14.09L55 59.84a9.903 9.903 0 0 1 7.05-2.93c2.66 0 5.17 1.04 7.05 2.93l12.46 12.4c2.45 2.45 5.71 3.8 9.17 3.8s6.72-1.35 9.16-3.79l12.51-12.41a9.903 9.903 0 0 1 7.05-2.93c2.66 0 5.17 1.04 7.05 2.93l19.63 19.61c-3.51.16-6.78 1.6-9.29 4.11l-16.8 16.8-.93-.93c-1.15-1.15-2.7-1.81-4.26-1.81-1.42 0-2.74.54-3.7 1.5l-13.41 13.46c-.03.03-2.72 2.88-7.02 2.88-3.97 0-6.33-2.25-6.42-2.34L69.98 98.81c-.84-.84-2-1.3-3.27-1.3-1.56 0-3.16.7-4.37 1.91-2.28 2.28-2.56 5.72-.62 7.66l19.84 19.82c2.45 2.45 5.7 3.8 9.16 3.8 4.84 0 8.03-2.65 9.17-3.8l40.13-40.17a9.5 9.5 0 0 1 6.76-2.8c2.15 0 4.18.7 5.86 2.03l25.07 24.99c3.81 3.81 3.81 10.01 0 13.82" style="fill: rgb(0, 31, 61);"/>
  </g>
</svg>