<svg xmlns="http://www.w3.org/2000/svg" width="300" height="300" style="shape-rendering:geometricPrecision;text-rendering:geometricPrecision;image-rendering:optimizeQuality;fill-rule:evenodd;clip-rule:evenodd"><path style="opacity:.871" fill="#000000" d="M149.5 60.5c21.088-.694 39.921 5.306 56.5 18 1.12 4.18-.38 6.014-4.5 5.5-33.365-22.553-66.032-21.553-98 3-28.288 28.79-33.621 61.456-16 98a6.291 6.291 0 0 1-1 3c-1.759.798-3.425.631-5-.5-14.778-28.7-14.611-57.367.5-86 15.94-24.55 38.439-38.216 67.5-41z"/><path style="opacity:.868" fill="#000000" d="M145.5 71.5c36.242-1.877 62.076 13.457 77.5 46 12.155 37.533 2.321 67.7-29.5 90.5-25.169 13.599-50.502 13.932-76 1-2.888-3.172-2.222-5.339 2-6.5 24.842 12.707 49.175 11.874 73-2.5 30.174-25.203 36.341-55.37 18.5-90.5-18.502-25.827-43.335-35.327-74.5-28.5-30.255 10.598-46.589 31.931-49 64 .475 12.736 3.975 24.57 10.5 35.5.934 4.583-.9 6.083-5.5 4.5-16.83-29.213-15.664-57.713 3.5-85.5 12.98-15.735 29.48-25.069 49.5-28z"/><path style="opacity:.868" fill="#000000" d="M143.5 92.5c26.75-3.375 46.584 6.625 59.5 30 10.01 27.484 3.51 49.984-19.5 67.5-18.085 10.61-36.418 11.11-55 1.5-1.131-1.574-1.298-3.241-.5-5a6.293 6.293 0 0 1 3-1c24.592 10.852 45.258 5.852 62-15 13.052-24.616 8.885-45.783-12.5-63.5-17.333-10-34.667-10-52 0-19.958 16.118-24.791 35.952-14.5 59.5 1.333 5.667-.667 7.333-6 5-11.899-26.113-7.399-48.946 13.5-68.5 6.766-4.885 14.1-8.385 22-10.5z"/><path style="opacity:.866" fill="#000000" d="M150.5 117.5c22.826.659 32.993 12.325 30.5 35-5.545 15.195-16.378 21.695-32.5 19.5-2.102-1.733-2.435-3.733-1-6 22.061-.013 30.227-10.513 24.5-31.5-11.03-12.844-22.363-13.177-34-1l-3 6a118.983 118.983 0 0 0 0 16c-3.689 1.939-6.023.939-7-3-2.684-18.442 4.816-30.108 22.5-35z"/><path style="opacity:.894" fill="#000000" d="M155.5 137.5c3.385-.71 5.719.456 7 3.5a182.758 182.758 0 0 1-4.5 14.5c-2.881 1.528-5.214.862-7-2l-47 47a113.145 113.145 0 0 1-2 20L84.5 238c-2.563.918-4.73.418-6.5-1.5a98.432 98.432 0 0 1-.5-14 72.271 72.271 0 0 1-16-1.5c-1.054-1.388-1.22-2.888-.5-4.5a222.514 222.514 0 0 1 22.5-21 39.924 39.924 0 0 0 15 .5l48-48c-3.841-1.165-4.675-3.332-2.5-6.5a95.6 95.6 0 0 0 11.5-4zm-72 66c2.357-.163 4.69.003 7 .5l-11 11a12.494 12.494 0 0 1-7 0 177.563 177.563 0 0 0 11-11.5zm12 5c1.13 2.128 1.296 4.461.5 7l-11 11a20.438 20.438 0 0 0-1.5-5.5 210.702 210.702 0 0 0 12-12.5z"/><path style="opacity:.861" fill="#000000" d="M230.5 160.5c5.567-.747 7.4 1.587 5.5 7-14.697 42.952-44.864 63.452-90.5 61.5-11.669-1.39-22.669-4.89-33-10.5-2.563-2.901-2.063-5.234 1.5-7 37.565 18.588 70.898 12.922 100-17 7.906-10.145 13.406-21.478 16.5-34z"/></svg>