<svg xmlns="http://www.w3.org/2000/svg" width="300" height="300" style="shape-rendering:geometricPrecision;text-rendering:geometricPrecision;image-rendering:optimizeQuality;fill-rule:evenodd;clip-rule:evenodd"><path style="opacity:.89" fill="#000000" d="M69.5 93.5a325.766 325.766 0 0 1 30.5 10c.945.405 1.612 1.072 2 2 .015 2.291.182 4.458.5 6.5 2.724.27 5.391.77 8 1.5 11.991-3.994 23.991-7.994 36-12a53.39 53.39 0 0 1 14.5 5 50.126 50.126 0 0 1 7.5-2 300.552 300.552 0 0 1 23 6.5c5.089.826 10.089.492 15-1-1.482-2.592-1.148-4.925 1-7a183.495 183.495 0 0 1 29-7c1.393 1.171 2.227 2.671 2.5 4.5l14 52c1.213 3.268 1.546 6.601 1 10a257.243 257.243 0 0 1-28.5 8c-2.703-.539-4.203-2.205-4.5-5-3.394.956-6.894 1.289-10.5 1-1.179 6.849-5.179 11.182-12 13-1.206 4.705-4.206 7.538-9 8.5-2.544 7.688-7.711 10.521-15.5 8.5-2.429 4.702-6.262 6.535-11.5 5.5a133.093 133.093 0 0 1-14-6.5c-2.92 5.924-7.587 9.59-14 11-5.056-.524-8.723-3.024-11-7.5-4.884.14-8.718-1.694-11.5-5.5-9.285 2.906-15.118-.428-17.5-10-7.079-2.992-9.412-8.159-7-15.5l-7-3.5a32.367 32.367 0 0 0-3 4.5c-1.667.667-3.333.667-5 0l-24-9c-2.135-.759-3.468-2.259-4-4.5a1268.126 1268.126 0 0 1 25-62zm4 9a133.705 133.705 0 0 0 15 5.5c1.723.523 3.056 1.523 4 3A1118.632 1118.632 0 0 1 72 160.5a138.272 138.272 0 0 1-17.5-8 1133.965 1133.965 0 0 0 19-50zm157 2a619.848 619.848 0 0 1 15 53 70.327 70.327 0 0 0-16 4 961.386 961.386 0 0 1-15-51 3.647 3.647 0 0 1 1-1.5c5.256-1.058 10.256-2.558 15-4.5zm-85 5a13.483 13.483 0 0 1 6 2.5 195.577 195.577 0 0 0-23.5 23.5c-1.004 11.328 4.163 16.161 15.5 14.5l16-10a12.494 12.494 0 0 1 7 0l32 21c4.116 2.157 4.783 4.991 2 8.5-1.268.928-2.601 1.095-4 .5a643.917 643.917 0 0 1-29-18c-5.483-.508-7.15 1.825-5 7a205.543 205.543 0 0 1 28 18.5 6.547 6.547 0 0 1-3 3 668.605 668.605 0 0 0-30-17.5c-5.748-1.191-7.414.976-5 6.5a200.052 200.052 0 0 1 28 17.5c-.113 1.28-.78 2.113-2 2.5a101.146 101.146 0 0 1-17-8.5c-5.594-1.913-7.761-.08-6.5 5.5a44.742 44.742 0 0 0 9.5 5.5c.951.718 1.117 1.551.5 2.5a60.761 60.761 0 0 0-11.5-5.5c-.045-2.636-.212-5.47-.5-8.5-1.819-4.836-5.319-7.669-10.5-8.5-1.854-5.184-5.52-8.184-11-9-3.085-8.186-8.751-10.853-17-8a14.51 14.51 0 0 0-4.5 4.5c-2.214-2.575-5.047-3.908-8.5-4-3.966.733-7.466 2.4-10.5 5-2.927-.877-5.427-2.377-7.5-4.5a2298.163 2298.163 0 0 1 14-35.5 445.97 445.97 0 0 0 20-.5 459.327 459.327 0 0 0 28-10.5zm22 3a272.377 272.377 0 0 1 22 6.5c6.457.356 12.79.523 19 .5a557.28 557.28 0 0 1 10 39c-4.621.507-8.954-.326-13-2.5a679.474 679.474 0 0 0-37-24 30.485 30.485 0 0 0-11 0 131.76 131.76 0 0 0-17 10c-4.167 1.167-5.667-.333-4.5-4.5l23.5-21.5c2.658-1.478 5.325-2.645 8-3.5zm-48 49c3.427 1.163 4.261 3.163 2.5 6a580.056 580.056 0 0 1-13.5 18.5c-3.611 1.254-5.111.088-4.5-3.5a519.718 519.718 0 0 1 15.5-21zm-19 2c1.884.212 3.217 1.212 4 3a39.986 39.986 0 0 1-6 8.5c-3.167.833-4.333-.333-3.5-3.5a50.784 50.784 0 0 1 5.5-8zm29 8c3.024-.136 4.524 1.198 4.5 4L123.5 190c-4.978.769-6.145-1.064-3.5-5.5 3.176-4.363 6.343-8.696 9.5-13zm12 9c2.973.465 4.14 2.132 3.5 5a66.057 66.057 0 0 1-10.5 13c-2.644-1.241-3.477-3.241-2.5-6 2.68-4.499 5.847-8.499 9.5-12z"/></svg>