<svg xmlns="http://www.w3.org/2000/svg" width="300" height="300" style="shape-rendering:geometricPrecision;text-rendering:geometricPrecision;image-rendering:optimizeQuality;fill-rule:evenodd;clip-rule:evenodd"><path style="opacity:.863" fill="#000000" d="M96.5 64.5c7.341-.166 14.674 0 22 .5l1.5 1.5 1 10 6.5-6.5c1.789-.52 3.456-.187 5 1 5.094 4.42 9.427 9.42 13 15a39.591 39.591 0 0 1-7 8c4.063.038 7.897.872 11.5 2.5a121.19 121.19 0 0 1 0 22c-3.459.633-6.959 1.3-10.5 2a31.84 31.84 0 0 0 4.5 5c1.187 1.544 1.52 3.211 1 5L131.5 144c-1.667.667-3.333.667-5 0l-5.5-5.5c-.038 4.063-.872 7.897-2.5 11.5a83.878 83.878 0 0 1-22-.5l-2-11a55.098 55.098 0 0 0-6.5 6c-1.335 29.84 11.498 51.007 38.5 63.5 1 .667 2 .667 3 0-3.51-1.907-4.676-4.74-3.5-8.5 1.814-1.26 3.647-1.26 5.5 0a214.1 214.1 0 0 1 10.5 14c.72 1.612.554 3.112-.5 4.5a385.235 385.235 0 0 0-16.5 8.5c-3.075-.969-4.075-2.969-3-6a32.364 32.364 0 0 0 5.5-4c-32.795-14.565-48.628-39.898-47.5-76l-9-9c-.667-1.667-.667-3.333 0-5a46.643 46.643 0 0 0 5.5-6c-4.112-.435-7.945-1.435-11.5-3a100.245 100.245 0 0 1 0-20c.5-1.167 1.333-2 2.5-2.5l9-1-5.5-5.5c-.667-1.667-.667-3.333 0-5L84.5 70c1.789-.52 3.456-.187 5 1a31.857 31.857 0 0 0 5 4.5c.733-3.704 1.4-7.37 2-11zm6 7h11c-1.84 9.082 1.827 12.916 11 11.5 1.58-2.295 3.58-3.628 6-4a55.098 55.098 0 0 1 6 6.5c-5.585 4.175-6.418 9.175-2.5 15 3.057.951 6.223 1.284 9.5 1v11c-9.144-1.216-12.978 2.784-11.5 12l4.5 4.5-7.5 7.5a29.768 29.768 0 0 0-7-6 102.783 102.783 0 0 1-7.5 3 25.879 25.879 0 0 0-1 10h-11c1.668-6.504-.666-10.671-7-12.5-4.06.015-7.226 1.848-9.5 5.5l-7.5-7.5c2.603-2.094 4.603-4.594 6-7.5-.974-7.665-5.307-10.665-13-9v-11c3.398.32 6.732-.013 10-1 .902-2.54 1.902-5.04 3-7.5a29.784 29.784 0 0 0-6-7l7.5-7.5c4.962 6.284 10.295 6.618 16 1 .497-2.646.664-5.313.5-8zm0 19c18.42-.138 24.92 8.529 19.5 26-8.939 10.198-18.273 10.532-28 1-6.133-11.77-3.3-20.77 8.5-27z"/><path style="opacity:.87" fill="#000000" d="M174.5 73.5c2.821-.184 4.488 1.15 5 4a21.566 21.566 0 0 1-7 5.5c33.105 14.414 48.938 39.58 47.5 75.5 4.09 3.583 7.59 7.583 10.5 12-1.735 3.243-4.068 6.077-7 8.5a74.905 74.905 0 0 0 11.5 2.5 121.19 121.19 0 0 1 0 22c-3.459.633-6.959 1.3-10.5 2a55.482 55.482 0 0 1 5.5 7c.52 1.789.187 3.456-1 5a89.042 89.042 0 0 1-14.5 13 28.54 28.54 0 0 1-8.5-7l-1 10-1.5 1.5c-7 .667-14 .667-21 0-1.565-3.555-2.565-7.388-3-11.5a64.292 64.292 0 0 0-7 6.5c-1.408.315-2.741-.018-4-1L156 216.5c-.667-1.667-.667-3.333 0-5a46.607 46.607 0 0 0 5.5-6c-4.112-.435-7.945-1.435-11.5-3a100.2 100.2 0 0 1 0-20c3.555-1.565 7.388-2.565 11.5-3a46.607 46.607 0 0 0-5.5-6c-.667-1.667-.667-3.333 0-5l13.5-13.5c1.789-.52 3.456-.187 5 1l5.5 5.5a73.396 73.396 0 0 1 1.5-11.5 121.19 121.19 0 0 1 22 0l1.5 1.5 1 10 7-7c.117-30.981-14.049-52.147-42.5-63.5 2.287 2.07 3.953 4.57 5 7.5-1.241 2.644-3.241 3.477-6 2.5a291.055 291.055 0 0 1-12-16.5 7.292 7.292 0 0 1 2-3c5.22-2.44 10.22-5.108 15-8zm13 83h11c-1.84 9.082 1.827 12.916 11 11.5 1.58-2.295 3.58-3.628 6-4a55.05 55.05 0 0 1 6 6.5c-5.585 4.175-6.418 9.175-2.5 15 3.057.951 6.223 1.284 9.5 1v12c-9.082-1.84-12.916 1.827-11.5 11l4.5 4.5-7.5 7.5a29.768 29.768 0 0 0-7-6 30.71 30.71 0 0 0-8 4 40.914 40.914 0 0 0-.5 9h-11c.284-3.277-.049-6.443-1-9.5a76.643 76.643 0 0 0-7.5-3.5c-3.221 1.216-5.888 3.216-8 6l-7.5-7.5c2.603-2.094 4.603-4.594 6-7.5a73.999 73.999 0 0 0-3-7.5 50.464 50.464 0 0 0-10-.5v-12c7.284 1.726 11.617-.941 13-8-1.397-2.906-3.397-5.406-6-7.5l7.5-7.5c4.962 6.284 10.295 6.617 16 1 .497-2.646.664-5.313.5-8zm1 19c15.305-.529 22.139 6.805 20.5 22-5.416 11.252-13.916 14.418-25.5 9.5-11.866-12.78-10.199-23.28 5-31.5z"/><path style="opacity:.863" fill="#000000" d="M101.5 83.5c21.176-.992 31.009 9.008 29.5 30-4.465 13.119-13.632 18.953-27.5 17.5-14.251-3.67-20.751-12.836-19.5-27.5 1.916-10.207 7.75-16.874 17.5-20zm1 7c-11.8 6.23-14.633 15.23-8.5 27 9.727 9.532 19.061 9.198 28-1 5.42-17.471-1.08-26.138-19.5-26z"/><path style="opacity:.862" fill="#000000" d="M187.5 168.5c20.665-.504 30.165 9.496 28.5 30-6.435 16.13-17.935 21.297-34.5 15.5-12.054-8.046-15.554-18.879-10.5-32.5 3.944-6.459 9.444-10.792 16.5-13zm1 7c-15.199 8.22-16.866 18.72-5 31.5 11.584 4.918 20.084 1.752 25.5-9.5 1.639-15.195-5.195-22.529-20.5-22z"/></svg>