<svg xmlns="http://www.w3.org/2000/svg" width="300" height="300" style="shape-rendering:geometricPrecision;text-rendering:geometricPrecision;image-rendering:optimizeQuality;fill-rule:evenodd;clip-rule:evenodd"><path style="opacity:.888" fill="#000000" d="M111.5 47.5c35.703-2.904 62.203 11.096 79.5 42 .833 4.5-1 6.333-5.5 5.5-20.117-34.599-49.45-46.265-88-35-32.294 15.418-46.128 40.918-41.5 76.5 10.723 37.382 35.556 55.549 74.5 54.5 29.693-5.087 49.193-21.921 58.5-50.5 2.447-2.544 4.947-2.544 7.5 0 1.196 1.059 1.863 2.393 2 4-.182 4.934-.349 9.934-.5 15a17.99 17.99 0 0 1-8.5.5 2628.43 2628.43 0 0 1 60.5 61.5c4.46 11.716 1.626 21.216-8.5 28.5-7.842 3.582-15.508 3.249-23-1l-58-58c-9.561 3.846-19.561 6.513-30 8-39.97 1.664-66.804-16.17-80.5-53.5-7.972-32.08.195-59.247 24.5-81.5 11.197-8.27 23.53-13.77 37-16.5zm73 120c3.735 2.225 7.068 5.058 10 8.5L176 194.5a107.985 107.985 0 0 1-8.5-9 108.32 108.32 0 0 0 17-18zm15 15c3.063 1.551 5.729 3.718 8 6.5L189 207.5a64.292 64.292 0 0 1-6.5-7c5.688-6.02 11.355-12.02 17-18zm13 12a276.605 276.605 0 0 1 30.5 32c2.442 8.285-.392 14.119-8.5 17.5-3.428.701-6.762.368-10-1l-30-30a468.225 468.225 0 0 0 18-18.5z"/><path style="opacity:.881" fill="#000000" d="M117.5 65.5c29.819-.317 49.986 13.35 60.5 41 7.179 33.838-4.988 57.672-36.5 71.5-32.141 7.838-55.974-2.662-71.5-31.5-10.338-29.839-2.838-54.006 22.5-72.5 7.95-4.371 16.283-7.205 25-8.5zm0 8c29.499.147 47.666 14.48 54.5 43 1.428 29.001-11.738 47.501-39.5 55.5-31.011 2.925-50.511-10.575-58.5-40.5-1.702-31.63 12.798-50.964 43.5-58z"/></svg>