<svg version="1.1" id="Camada_1" xmlns="http://www.w3.org/2000/svg" x="0" y="0" viewBox="0 0 448.95 635" style="enable-background:new 0 0 448.95 635" xml:space="preserve"><style>.st3{fill:#00293f}.st4{fill:#e97520}</style><switch><g><path class="st3" d="M0 17.33C0 7.76 7.76 0 17.33 0h414.29c9.57 0 17.34 7.75 17.34 17.33v415.03c0 9.57-7.77 17.33-17.34 17.33H17.33C7.76 449.7 0 441.93 0 432.37V17.33zM0 486.82c0-9.57 7.76-17.34 17.33-17.34h414.29c9.57 0 17.34 7.76 17.34 17.34v130.84c0 9.57-7.76 17.34-17.34 17.34H17.33C7.76 635 0 627.24 0 617.66V486.82z"/><path class="st4" d="M72.03 528.38c-4.51 0-8.68 1.43-12.1 3.84-3.43-2.41-7.59-3.84-12.09-3.84-11.6 0-21.03 9.43-21.03 21.03v28.48h17.87v-28.48c0-1.74 1.42-3.16 3.17-3.16 1.73 0 3.16 1.42 3.16 3.16v28.48h17.87v-28.48c0-1.74 1.43-3.16 3.17-3.16s3.16 1.42 3.16 3.16v28.48h17.87v-28.48c-.03-11.59-9.46-21.03-21.05-21.03M286.06 560.41c-3.9 0-7.08-3.17-7.08-7.07 0-3.91 3.18-7.08 7.08-7.08s7.08 3.17 7.08 7.08c0 3.9-3.18 7.07-7.08 7.07m0-32.03c-13.75 0-24.94 11.2-24.94 24.95s11.19 24.95 24.94 24.95c13.76 0 24.95-11.2 24.95-24.95s-11.19-24.95-24.95-24.95M250.26 525.35c0-1.74 1.42-3.16 3.16-3.16h9.81v-17.87h-9.81c-11.61 0-21.03 9.43-21.03 21.03v52.54h17.87v-31.32h8.12V528.7h-8.12v-3.35zM343.66 528.78h-7.26c-11.59 0-21.03 9.43-21.03 21.03v28.09h17.87v-28.09a3.16 3.16 0 0 1 3.16-3.16h7.26v-17.87zM217.08 507.45c-5.06 0-9.16 4.1-9.16 9.15 0 5.06 4.1 9.16 9.16 9.16 5.06 0 9.16-4.1 9.16-9.16 0-5.05-4.1-9.15-9.16-9.15m-8.94 21.33h17.87v49.12h-17.87v-49.12zM359.71 507.26c-5.06 0-9.16 4.1-9.16 9.16 0 5.06 4.1 9.16 9.16 9.16 5.05 0 9.15-4.1 9.15-9.16 0-5.05-4.1-9.16-9.15-9.16m-8.94 21.33h17.87v52.55c0 11.6-9.43 21.03-21.03 21.03h-9.81V584.3h9.81c1.74 0 3.16-1.42 3.16-3.17v-52.54zM397.78 528.38c-13.77 0-24.96 11.2-24.96 24.97 0 14.23 10.73 24.97 24.96 24.97 1.14 0 2.31-.09 3.49-.27v-18.43c-.9.46-2.46.83-3.49.83-4.9 0-7.1-3.56-7.1-7.1 0-3.92 3.19-7.1 7.1-7.1 3.91 0 7.1 3.18 7.1 7.1v24.54h17.87v-24.54c-.01-13.77-11.21-24.97-24.97-24.97M121.94 528.38c-13.76 0-24.97 11.2-24.97 24.97 0 14.23 10.74 24.97 24.97 24.97 1.13 0 2.31-.09 3.49-.27v-18.43c-.9.46-2.46.83-3.49.83-4.9 0-7.1-3.56-7.1-7.1 0-3.92 3.18-7.1 7.1-7.1 3.91 0 7.1 3.18 7.1 7.1v24.54h17.87v-24.54c0-13.77-11.2-24.97-24.97-24.97M205.05 528.78h-22.56l-4.95 7.34-4.95-7.34h-22.56l16.23 24.04-16.93 25.07h22.57l5.64-8.36 5.65 8.36h22.56l-16.93-25.07zM183.21 133.85c5.95 5.96 13.88 9.25 22.3 9.25 17.39 0 31.55-14.16 31.55-31.56 0-17.41-14.16-31.57-31.55-31.57s-31.55 14.16-31.55 31.56c0 8.43 3.28 16.36 9.25 22.32m201.33 141.97-14.36 14.36c-3.8 3.8-8.85 5.89-14.22 5.89s-10.42-2.1-14.23-5.89l-17.61-17.61-.37-.32c-1.53-1.11-3.41-1.7-5.41-1.7-3.07 0-6.18 1.36-8.54 3.72-2.37 2.37-3.73 5.48-3.73 8.55 0 2.5.9 4.77 2.55 6.42l16.98 17.08c7.84 7.85 7.84 20.6 0 28.44l-11 11c-3.8 3.79-8.84 5.88-14.22 5.88-5.37 0-10.42-2.09-14.22-5.88l-15.94-15.95-.21-.2c-2.07-1.94-4.74-3-7.57-3-2.23 0-5.53.67-8.84 3.79l-33.59 33.56c-3.87 3.88-9.02 6.01-14.5 6.01s-10.63-2.13-14.51-6.01L65.04 237.99c-8-8-8-21.02 0-29l66.94-66.81c3.88-3.87 9.03-6.01 14.5-6.01 5.48 0 10.63 2.14 14.51 6.01l25.65 25.53c5.04 5.04 11.74 7.81 18.86 7.81 7.12 0 13.83-2.77 18.86-7.8l25.74-25.55c3.87-3.87 9.02-6.01 14.5-6.01s10.63 2.14 14.51 6.01l40.39 40.36c-7.22.33-13.95 3.3-19.1 8.44l-34.57 34.58-1.92-1.91c-2.36-2.37-5.55-3.72-8.77-3.72-2.92 0-5.63 1.1-7.63 3.1l-27.6 27.69c-.06.06-5.6 5.92-14.43 5.92-8.18 0-13.03-4.62-13.21-4.8l-29.45-29.45c-1.73-1.73-4.12-2.68-6.74-2.68-3.23 0-6.52 1.44-9.02 3.94-4.69 4.69-5.25 11.76-1.26 15.77l40.81 40.8c5.05 5.03 11.75 7.81 18.86 7.81 9.95 0 16.51-5.46 18.87-7.81l82.59-82.66c3.71-3.72 8.64-5.77 13.89-5.77 4.43 0 8.61 1.45 12.09 4.17l51.58 51.42c7.88 7.85 7.88 20.61.05 28.45"/></g></switch></svg>