<svg version="1.1" id="Camada_1" xmlns="http://www.w3.org/2000/svg" x="0" y="0" viewBox="0 0 776.76 205.2" style="enable-background:new 0 0 776.76 205.2" xml:space="preserve"><style>.st1{fill-rule:evenodd;clip-rule:evenodd;fill:#0f283d}.st2{fill:#e57526}</style><switch><g><path class="st1" d="M220.13 21.49c0-11.86 9.63-21.49 21.5-21.49h513.64c11.88 0 21.49 9.62 21.49 21.49v162.23c0 11.86-9.63 21.49-21.49 21.48H241.62c-11.87 0-21.5-9.62-21.5-21.48V21.49z"/><path class="st2" d="M309.42 73.02c-5.57 0-10.74 1.76-14.99 4.77-4.24-3-9.42-4.77-14.99-4.77-14.38 0-26.08 11.69-26.08 26.07v35.31h22.16V99.1a3.92 3.92 0 0 1 3.92-3.92c2.16 0 3.91 1.76 3.91 3.92v35.31h22.16V99.1c0-2.16 1.76-3.92 3.91-3.92 2.17 0 3.93 1.76 3.93 3.92v35.31h22.16V99.1c0-14.39-11.7-26.08-26.09-26.08zM574.81 73.02c-17.05 0-30.93 13.87-30.93 30.93 0 17.06 13.87 30.93 30.93 30.93 17.05 0 30.92-13.87 30.92-30.93 0-17.06-13.87-30.93-30.92-30.93zm0 39.71c-4.84 0-8.77-3.94-8.77-8.78s3.93-8.77 8.77-8.77 8.76 3.94 8.76 8.77c0 4.84-3.92 8.78-8.76 8.78zM530.41 69.26c0-2.16 1.76-3.92 3.91-3.92h12.17V43.19h-12.17c-14.38 0-26.07 11.7-26.07 26.08v65.14h22.16V95.57h10.07V73.43h-10.07v-4.17zM646.21 73.51h-8.99c-14.38 0-26.08 11.69-26.08 26.08v34.81h22.16V99.59c0-2.17 1.76-3.93 3.92-3.93h8.99V73.51zM478.19 73.51h22.17v60.89h-22.17V73.51zm11.08-26.44c-6.26 0-11.34 5.08-11.34 11.35 0 6.28 5.08 11.35 11.34 11.35 6.28 0 11.36-5.07 11.36-11.35 0-6.27-5.08-11.35-11.36-11.35zM655.04 73.28h22.16v65.14c0 14.38-11.71 26.07-26.08 26.07h-12.17v-22.14h12.17c2.16 0 3.93-1.77 3.93-3.93V73.28zm11.07-26.45c-6.26 0-11.35 5.09-11.35 11.36 0 6.26 5.09 11.35 11.35 11.35s11.35-5.09 11.35-11.35c0-6.27-5.09-11.36-11.35-11.36zM713.32 73.02c-17.07 0-30.96 13.88-30.96 30.96 0 17.64 13.29 30.95 30.96 30.95 1.39 0 2.86-.12 4.31-.33v-22.85c-1.1.56-3.03 1.03-4.31 1.03-6.08 0-8.8-4.42-8.8-8.8 0-4.85 3.93-8.81 8.8-8.81 4.85 0 8.8 3.95 8.8 8.81v30.42h22.15v-30.42c0-17.08-13.9-30.96-30.95-30.96zM371.32 73.02c-17.07 0-30.95 13.88-30.95 30.96 0 17.64 13.3 30.95 30.95 30.95 1.41 0 2.86-.12 4.33-.33v-22.85c-1.12.56-3.04 1.03-4.33 1.03-6.06 0-8.79-4.42-8.79-8.8 0-4.85 3.93-8.81 8.79-8.81 4.85 0 8.8 3.95 8.8 8.81v30.42h22.18v-30.42c-.01-17.08-13.92-30.96-30.98-30.96zM474.36 73.51h-27.97l-6.15 9.09-6.13-9.09h-27.96l20.12 29.82-20.98 31.08h27.97l6.98-10.37 7.02 10.37h27.97l-20.99-31.08z"/><path class="st1" d="M0 21.49C0 9.63 9.62 0 21.49 0h162.22c11.88 0 21.5 9.62 21.5 21.49v162.23c0 11.86-9.62 21.49-21.5 21.48H21.49C9.62 205.2 0 195.58 0 183.72V21.49z"/><path class="st2" d="m182.23 127.94-7.14 7.16c-1.9 1.89-4.42 2.94-7.09 2.94s-5.2-1.05-7.09-2.94l-8.78-8.78-.17-.15c-.77-.56-1.7-.85-2.7-.85-1.52 0-3.08.67-4.26 1.85-1.17 1.19-1.87 2.74-1.87 4.26 0 1.24.46 2.37 1.29 3.19l8.45 8.51c3.91 3.91 3.91 10.26 0 14.17l-5.48 5.49a9.96 9.96 0 0 1-7.09 2.93c-2.67 0-5.2-1.04-7.07-2.93l-7.94-7.95-.11-.1a5.53 5.53 0 0 0-3.76-1.49c-1.1 0-2.75.33-4.42 1.88l-16.73 16.73a10.141 10.141 0 0 1-7.23 2.99c-2.73 0-5.3-1.06-7.23-2.99L23.03 109.1c-3.99-4-3.99-10.48 0-14.46L56.4 61.35c1.91-1.94 4.49-2.99 7.23-2.99 2.72 0 5.3 1.06 7.23 3l12.77 12.72c2.52 2.51 5.86 3.9 9.41 3.9 3.54 0 6.89-1.4 9.39-3.9l12.83-12.73c1.93-1.94 4.49-2.99 7.22-2.99 2.74 0 5.3 1.06 7.23 2.99l20.13 20.11c-3.6.16-6.96 1.63-9.52 4.21l-17.23 17.22-.95-.94c-1.18-1.18-2.77-1.86-4.37-1.86-1.45 0-2.81.55-3.8 1.54l-13.76 13.8c-.03.03-2.79 2.96-7.18 2.96-4.09 0-6.49-2.31-6.58-2.4l-14.67-14.68c-.88-.86-2.06-1.34-3.36-1.34-1.61 0-3.25.72-4.5 1.97-2.34 2.33-2.62 5.85-.64 7.85l20.34 20.33c2.54 2.5 5.86 3.89 9.41 3.89 4.95 0 8.21-2.73 9.4-3.89l41.15-41.19a9.74 9.74 0 0 1 6.94-2.87c2.2 0 4.28.72 6.01 2.08l25.7 25.63c3.9 3.91 3.9 10.26 0 14.17zM81.91 57.21a15.66 15.66 0 0 0 11.12 4.6c8.66 0 15.72-7.06 15.73-15.72 0-8.67-7.06-15.73-15.73-15.73-8.68 0-15.73 7.06-15.73 15.72 0 4.2 1.64 8.15 4.61 11.13z"/></g></switch></svg>