{"accessors" : [{"bufferView" : 0, "byteOffset" : 0, "componentType" : 5123, "count" : 40068, "type" : "SCALAR", "max" : [39740], "min" : [0]}, {"bufferView" : 1, "byteOffset" : 0, "componentType" : 5126, "count" : 39741, "type" : "VEC3", "max" : [51.9893798828125, 47.5, 30], "min" : [-51.99474334716797, -282, -21.00508689880371], "name" : "POSITION"}, {"bufferView" : 1, "byteOffset" : 12, "componentType" : 5126, "count" : 39741, "type" : "VEC3", "max" : [0.9995033740997314, 0.9995033740997314, 1.0000044107437134], "min" : [-0.9995033740997314, -0.9995033740997314, -1.0000044107437134], "name" : "NORMAL"}], "asset" : {"generator" : "Aspose.3D 23.4.0", "version" : "2.0"}, "buffers" : [{"uri" : "data:application/octet-stream;base64,", "byteLength" : 1041776}], "bufferViews" : [{"buffer" : 0, "byteOffset" : 0, "byteLength" : 80136, "target" : 34963}, {"buffer" : 0, "byteOffset" : 80140, "byteLength" : 961632, "byteStride" : 24, "target" : 34962}], "meshes" : [{"primitives" : [{"attributes" : {"POSITION" : 1, "NORMAL" : 2}, "indices" : 0, "mode" : 4}], "name" : ""}], "nodes" : [{"mesh" : 0, "name" : ""}], "scene" : 0, "scenes" : [{"nodes" : [0]}]}